<svg xmlns="http://www.w3.org/2000/svg" xmlns:xlink="http://www.w3.org/1999/xlink" width="500" zoomAndPan="magnify" viewBox="0 0 375 374.999991" height="500" preserveAspectRatio="xMidYMid meet" version="1.0"><path fill="#000000" d="M 366.792969 166.140625 C 373.011719 172.484375 363.1875 186.164062 370.523438 191.199219 C 375 194.246094 375 200.714844 374.503906 206.121094 C 373.941406 211.96875 373.011719 218.558594 368.222656 221.914062 C 365.921875 223.53125 363.1875 224.09375 360.511719 224.652344 C 352.679688 226.269531 344.84375 227.945312 337.007812 229.5625 C 333.777344 230.246094 330.292969 230.933594 327.183594 229.75 C 324.136719 228.632812 321.710938 224.960938 323.144531 221.976562 C 319.660156 238.144531 300.570312 249.027344 284.902344 243.742188 C 271.472656 239.203125 266.375 221.855469 269.605469 208.050781 C 268.425781 214.269531 267.246094 220.484375 266.0625 226.703125 C 265.691406 228.382812 265.316406 230.1875 264.136719 231.367188 C 262.582031 232.984375 260.09375 233.109375 257.855469 233.109375 C 205.5625 233.730469 153.269531 234.351562 100.976562 234.910156 C 95.320312 234.972656 92.707031 227.824219 92.707031 222.164062 C 92.644531 216.445312 92.957031 209.667969 88.292969 206.433594 C 95.753906 220.238281 87.796875 239.886719 72.875 244.609375 C 57.949219 249.335938 40.167969 237.832031 38.363281 222.226562 C 39.234375 227.761719 34.199219 232.796875 28.726562 233.980469 C 23.316406 235.160156 17.722656 233.542969 12.375 231.925781 C 6.839844 230.246094 0 226.578125 1.121094 220.921875 C 2.550781 213.832031 0.125 206.371094 1.304688 199.21875 C 3.730469 184.609375 19.648438 176.710938 33.886719 172.671875 C 53.101562 167.199219 72.996094 164.277344 92.957031 164.027344 C 114.84375 163.714844 132.875 147.613281 153.207031 139.40625 C 186.972656 125.664062 225.148438 134.304688 261.585938 133.3125 C 264.570312 133.25 267.617188 133.125 270.230469 134.367188 C 274.828125 136.542969 279.679688 138.097656 284.53125 139.589844 C 310.085938 147.488281 335.578125 155.382812 361.132812 163.28125 C 363.1875 163.902344 365.300781 164.585938 366.792969 166.140625 M 87.484375 203.136719 C 83.007812 196.796875 75.859375 192.503906 68.148438 191.574219 C 60.5 190.578125 52.480469 193.003906 46.570312 198.039062 C 46.882812 198.660156 47.441406 199.160156 48.125 199.34375 C 49.496094 197.914062 51.421875 197.042969 53.472656 196.921875 C 49.308594 199.53125 44.519531 203.261719 45.265625 208.113281 C 44.148438 207.492188 43.027344 208.921875 42.59375 210.101562 C 40.417969 216.445312 40.851562 223.65625 43.898438 229.625 C 45.265625 232.300781 48.996094 232.984375 51.792969 231.800781 C 54.59375 230.683594 56.519531 228.070312 58.011719 225.460938 C 59.257812 223.285156 61.246094 220.546875 63.671875 221.355469 C 59.070312 225.460938 56.085938 231.304688 55.527344 237.398438 C 54.21875 236.964844 53.472656 235.347656 53.972656 234.039062 C 52.914062 233.542969 51.734375 233.046875 50.550781 233.417969 C 49.433594 233.792969 48.808594 235.472656 49.742188 236.15625 C 54.71875 239.886719 60.996094 241.75 67.214844 241.316406 C 68.957031 241.191406 70.820312 240.816406 72.066406 239.636719 C 74.675781 237.148438 73.433594 232.734375 71.503906 229.75 C 69.578125 226.703125 66.964844 223.59375 67.402344 220.050781 C 69.949219 225.335938 74.179688 229.75 79.402344 232.363281 C 80.085938 232.734375 80.894531 233.109375 81.640625 232.984375 C 82.945312 232.859375 83.816406 231.800781 84.5 230.746094 C 88.292969 224.589844 89.039062 216.628906 86.429688 209.914062 C 85.992188 208.921875 85.183594 207.738281 84.128906 208.050781 C 83.753906 209.667969 83.007812 211.097656 81.953125 212.339844 C 84.003906 212.777344 85.867188 214.144531 86.800781 216.070312 C 83.382812 215.136719 79.773438 214.640625 76.230469 214.703125 C 78.53125 212.652344 80.707031 210.539062 82.761719 208.296875 C 83.257812 207.738281 83.816406 207.054688 83.878906 206.308594 C 83.878906 205.625 83.445312 205.003906 83.070312 204.507812 C 80.957031 201.582031 78.40625 198.972656 75.609375 196.734375 C 80.273438 198.289062 84.4375 201.460938 87.113281 205.5625 C 88.167969 205.6875 88.105469 204.007812 87.484375 203.136719 M 267.058594 135.050781 C 263.390625 141.144531 254.375 140.089844 247.347656 138.660156 C 201.023438 129.019531 151.09375 138.597656 111.671875 164.710938 C 105.269531 168.941406 97.0625 168.566406 89.476562 168.566406 C 67.835938 168.441406 46.199219 172.171875 25.867188 179.511719 C 19.710938 181.75 13.367188 184.546875 9.511719 189.832031 C 2.550781 199.34375 6.34375 212.652344 4.972656 224.402344 C 14.363281 227.761719 24.1875 229.75 34.199219 230.246094 C 28.601562 214.453125 37.929688 195.054688 53.722656 189.519531 C 69.453125 183.925781 88.914062 193.1875 94.511719 208.984375 C 97 216.070312 96.9375 223.71875 97.746094 231.179688 C 150.039062 229.128906 202.390625 228.382812 254.683594 228.816406 C 258.851562 228.878906 264.507812 227.324219 264.011719 223.222656 C 261.898438 204.816406 278.871094 186.597656 297.402344 187.46875 C 315.929688 188.402344 331.101562 208.175781 327.121094 226.269531 C 340.738281 227.574219 354.792969 222.539062 364.554688 212.898438 C 367.726562 209.792969 370.585938 205.75 370.273438 201.335938 C 370.148438 199.40625 369.464844 197.542969 368.65625 195.800781 C 366.980469 192.195312 364.679688 188.710938 361.257812 186.660156 C 357.902344 184.609375 353.175781 184.359375 350.128906 186.910156 C 353.425781 182.496094 357.527344 178.703125 362.191406 175.777344 C 362.75 177.707031 361.757812 180.007812 359.953125 180.941406 C 361.632812 182.804688 365.175781 181.3125 365.859375 178.886719 C 366.605469 176.402344 365.300781 173.789062 363.683594 171.863281 C 359.207031 166.640625 352.179688 164.402344 345.589844 162.472656 C 319.847656 154.886719 294.167969 147.363281 268.425781 139.777344 C 267.992188 138.160156 267.492188 136.605469 267.058594 135.050781 M 278.683594 201.707031 C 276.324219 203.945312 276.820312 208.113281 279.058594 210.539062 C 281.296875 212.960938 284.652344 213.957031 287.886719 214.515625 C 290.125 214.890625 292.863281 215.449219 293.484375 217.625 C 286.832031 216.691406 279.992188 213.273438 273.773438 215.882812 C 274.519531 213.957031 276.445312 212.589844 278.5 212.464844 C 277.316406 210.847656 276.199219 209.230469 275.015625 207.613281 C 272.03125 213.582031 271.472656 220.734375 273.523438 227.078125 C 274.082031 228.695312 274.769531 230.308594 276.136719 231.367188 C 278.25 232.921875 281.296875 232.609375 283.535156 231.304688 C 285.773438 229.9375 287.453125 227.824219 289.007812 225.707031 C 290.5625 223.65625 292.117188 221.605469 293.671875 219.492188 C 293.917969 222.722656 291.617188 225.523438 289.628906 228.070312 C 287.578125 230.558594 285.648438 233.792969 286.644531 236.839844 C 287.390625 239.140625 289.753906 240.695312 292.117188 241.128906 C 294.480469 241.625 296.964844 241.191406 299.328125 240.757812 C 304.117188 239.886719 309.402344 238.519531 312.011719 234.414062 C 310.394531 233.480469 308.46875 233.234375 306.664062 233.605469 C 306.726562 235.097656 305.980469 236.589844 304.675781 237.335938 C 304.425781 232.484375 302.375 227.824219 299.015625 224.339844 C 298.457031 223.71875 297.773438 223.097656 297.523438 222.226562 C 297.339844 221.417969 297.710938 220.363281 298.582031 220.238281 C 301.007812 225.523438 305.296875 230 310.582031 232.484375 C 311.390625 232.859375 312.199219 233.234375 313.070312 232.984375 C 313.878906 232.796875 314.4375 232.050781 314.933594 231.367188 C 319.164062 225.273438 320.28125 217.191406 317.859375 210.164062 C 317.484375 209.105469 316.675781 207.800781 315.558594 208.113281 C 314.8125 209.730469 314.066406 211.285156 313.378906 212.898438 C 315.496094 212.589844 317.734375 214.144531 318.167969 216.257812 C 314.128906 214.515625 309.402344 214.453125 305.234375 216.070312 C 303.804688 216.628906 302.375 217.4375 300.757812 217.5 C 299.203125 217.5 297.402344 216.445312 297.402344 214.890625 C 303.371094 215.636719 309.648438 213.398438 313.753906 208.984375 C 315.121094 207.550781 315.058594 205.128906 314.1875 203.324219 C 313.257812 201.519531 311.703125 200.152344 310.148438 198.847656 C 313.691406 200.214844 316.738281 202.890625 318.480469 206.246094 C 319.039062 205.9375 319.351562 205.3125 319.414062 204.691406 C 315.183594 197.292969 307.164062 192.132812 298.644531 191.324219 C 290.125 190.515625 281.296875 193.996094 275.636719 200.464844 C 277.816406 200.898438 280.175781 199.78125 281.109375 197.789062 C 281.917969 199.28125 279.929688 200.527344 278.683594 201.707031 M 368.347656 212.898438 C 366.109375 214.765625 363.808594 216.628906 361.570312 218.558594 C 360.949219 219.054688 360.949219 220.050781 361.507812 220.546875 C 363.621094 220.238281 365.859375 219.925781 367.539062 218.558594 C 369.15625 217.191406 369.839844 214.390625 368.347656 212.898438 M 75.734375 235.71875 C 75.734375 236.652344 75.796875 237.523438 75.796875 238.394531 C 77.972656 237.957031 79.898438 236.464844 80.832031 234.414062 C 79.277344 233.792969 77.597656 233.355469 75.921875 233.109375 C 75.859375 233.980469 75.796875 234.847656 75.671875 235.71875 M 284.777344 236.339844 C 284.652344 235.472656 284.46875 234.601562 284.34375 233.730469 C 283.285156 233.417969 282.042969 233.046875 281.046875 233.542969 C 279.992188 233.980469 279.554688 235.65625 280.488281 236.21875 C 281.792969 237.023438 283.101562 237.773438 284.34375 238.578125 C 284.714844 237.894531 284.839844 237.085938 284.652344 236.402344 M 323.019531 212.777344 C 322.957031 210.910156 322.457031 209.105469 321.589844 207.492188 C 320.46875 209.230469 320.78125 211.71875 322.210938 213.210938 " fill-opacity="1" fill-rule="nonzero"/><path fill="#000000" d="M 71.691406 214.890625 C 72.375 214.953125 73.058594 214.953125 73.683594 215.015625 C 72.8125 215.945312 71.878906 216.878906 70.695312 217.253906 C 69.515625 217.625 67.960938 217.128906 67.527344 215.945312 C 68.769531 215.261719 70.261719 214.890625 71.691406 214.828125 " fill-opacity="1" fill-rule="nonzero"/><path fill="#000000" d="M 192.753906 182.371094 C 188.027344 185.230469 181.75 185.355469 176.960938 182.679688 C 182.183594 183.179688 187.46875 183.054688 192.753906 182.371094 " fill-opacity="1" fill-rule="nonzero"/><path fill="#000000" d="M 22.445312 190.640625 C 22.570312 191.882812 22.757812 193.128906 22.382812 194.308594 C 22.011719 195.488281 20.953125 196.546875 19.710938 196.421875 C 17.222656 196.234375 14.738281 195.988281 12.1875 195.800781 C 11.253906 195.675781 10.945312 194.308594 11.566406 193.5625 C 12.125 192.816406 13.183594 192.566406 14.113281 192.503906 C 16.351562 192.195312 18.589844 192.195312 20.769531 192.441406 C 20.890625 191.636719 21.574219 190.890625 22.445312 190.640625 " fill-opacity="1" fill-rule="nonzero"/><path fill="#000000" d="M 52.230469 218.371094 C 53.039062 218.683594 53.660156 219.304688 54.09375 219.988281 C 55.277344 221.855469 55.214844 224.527344 53.847656 226.332031 C 52.480469 228.070312 49.992188 228.941406 47.816406 228.257812 C 47.253906 225.085938 45.640625 222.039062 43.277344 219.738281 C 45.203125 218.929688 47.253906 218.433594 49.371094 218.183594 C 50.300781 218.0625 51.359375 218 52.230469 218.371094 " fill-opacity="1" fill-rule="nonzero"/><path fill="#000000" d="M 311.140625 228.382812 C 308.78125 228.257812 306.417969 227.015625 305.421875 224.960938 C 304.363281 222.847656 304.925781 219.988281 306.914062 218.746094 C 309.773438 217.003906 313.320312 219.054688 316.613281 219.367188 C 315.308594 221.914062 313.941406 224.464844 312.632812 227.078125 C 312.324219 227.699219 311.828125 228.382812 311.140625 228.382812 " fill-opacity="1" fill-rule="nonzero"/><path fill="#000000" d="M 68.582031 229.8125 C 69.515625 232.113281 69.828125 234.664062 69.515625 237.085938 C 66.90625 237.335938 64.230469 237.398438 61.558594 237.273438 C 61.058594 237.273438 60.5 237.210938 60.066406 236.902344 C 59.441406 236.402344 59.441406 235.472656 59.503906 234.601562 C 59.878906 230.496094 61.742188 225.957031 65.722656 224.777344 C 65.597656 226.578125 64.664062 228.382812 63.234375 229.5 C 64.976562 229.875 66.78125 230 68.582031 229.8125 " fill-opacity="1" fill-rule="nonzero"/><path fill="#000000" d="M 296.40625 228.195312 C 295.164062 227.574219 294.480469 226.082031 294.726562 224.714844 C 298.394531 226.828125 300.820312 230.871094 300.945312 235.097656 C 300.945312 235.65625 300.882812 236.277344 300.511719 236.714844 C 300.011719 237.273438 299.203125 237.335938 298.457031 237.335938 C 296.03125 237.335938 293.609375 237.335938 291.183594 237.273438 C 290.5 234.847656 290.746094 232.113281 291.742188 229.75 C 291.867188 229.378906 292.117188 229.003906 292.425781 228.816406 C 293.109375 228.445312 293.917969 228.878906 294.664062 229.066406 C 295.410156 229.316406 296.53125 228.941406 296.40625 228.195312 " fill-opacity="1" fill-rule="nonzero"/><path fill="#000000" d="M 60.375 205.875 C 58.574219 206.558594 57.082031 207.988281 56.332031 209.792969 C 58.199219 210.226562 60.066406 210.722656 61.929688 211.160156 C 61.992188 212.089844 61.121094 212.898438 60.1875 213.023438 C 59.257812 213.148438 58.386719 212.835938 57.515625 212.464844 C 53.597656 210.972656 49.183594 208.359375 48.996094 204.195312 C 50.925781 202.828125 52.914062 201.460938 54.839844 200.089844 C 55.339844 199.71875 55.898438 199.34375 56.457031 199.46875 C 56.894531 199.59375 57.265625 199.90625 57.578125 200.277344 C 58.882812 201.894531 59.878906 203.820312 60.375 205.875 " fill-opacity="1" fill-rule="nonzero"/><path fill="#000000" d="M 82.636719 226.828125 C 82.386719 227.574219 81.953125 228.382812 81.207031 228.632812 C 80.707031 228.753906 80.210938 228.570312 79.773438 228.382812 C 77.660156 227.574219 75.734375 226.394531 74.054688 224.902344 C 72.8125 223.78125 71.566406 222.289062 71.566406 220.546875 C 71.628906 218.808594 73.558594 217.128906 75.050781 218 C 73.558594 218.808594 74.117188 221.605469 75.796875 221.855469 C 77.535156 222.101562 78.84375 219.675781 77.785156 218.308594 C 80.398438 218.121094 83.070312 218.683594 85.371094 219.863281 C 84.5 222.164062 83.566406 224.527344 82.636719 226.828125 " fill-opacity="1" fill-rule="nonzero"/><path fill="#000000" d="M 299.140625 210.539062 C 300.820312 211.222656 302.933594 210.597656 304.054688 209.167969 C 302.1875 209.355469 300.511719 207.738281 300.199219 205.9375 C 299.886719 204.132812 300.695312 202.265625 301.941406 200.898438 C 302.6875 200.089844 303.679688 199.40625 304.738281 199.65625 C 305.171875 199.78125 305.609375 200.027344 305.917969 200.339844 C 307.410156 201.398438 308.84375 202.453125 310.335938 203.511719 C 310.644531 203.820312 311.019531 204.070312 311.203125 204.445312 C 311.640625 205.253906 311.265625 206.246094 310.769531 206.992188 C 309.089844 209.605469 306.105469 211.160156 303.246094 212.339844 C 302.3125 212.777344 301.257812 213.148438 300.324219 212.835938 C 299.328125 212.589844 298.582031 211.40625 299.140625 210.539062 " fill-opacity="1" fill-rule="nonzero"/><path fill="#000000" d="M 74.054688 212.339844 C 75.359375 210.660156 72.996094 207.800781 71.132812 208.796875 C 70.757812 209.355469 70.636719 210.164062 70.820312 210.847656 C 71.445312 211.222656 72.066406 211.65625 72.6875 212.03125 C 72.066406 213.273438 70.136719 212.898438 69.203125 211.90625 C 66.46875 208.984375 68.398438 204.195312 70.636719 200.835938 C 71.132812 200.214844 71.691406 199.46875 72.5 199.34375 C 73.183594 199.28125 73.867188 199.78125 74.488281 200.214844 C 75.984375 201.398438 77.535156 202.578125 79.027344 203.757812 C 79.464844 204.070312 79.898438 204.445312 80.085938 204.941406 C 80.273438 205.75 79.773438 206.496094 79.277344 207.117188 C 77.722656 209.042969 75.984375 210.785156 74.054688 212.339844 " fill-opacity="1" fill-rule="nonzero"/><path fill="#000000" d="M 47.316406 212.402344 C 45.703125 211.59375 44.957031 209.355469 45.703125 207.738281 C 48.25 211.71875 52.726562 214.390625 57.453125 214.703125 C 59.503906 214.828125 62.054688 214.765625 63.113281 216.507812 C 60.1875 218.433594 56.457031 216.507812 53.101562 215.574219 C 49.496094 214.515625 45.515625 214.765625 42.03125 216.257812 C 42.964844 214.144531 45.015625 212.589844 47.316406 212.402344 " fill-opacity="1" fill-rule="nonzero"/><path fill="#000000" d="M 288.945312 200.277344 C 290.6875 202.515625 292.550781 204.878906 292.738281 207.675781 C 292.925781 210.539062 290.6875 213.644531 287.886719 213.210938 C 286.394531 213.023438 285.214844 211.84375 284.15625 210.722656 C 282.355469 208.859375 280.488281 206.804688 280.300781 204.257812 C 282.414062 202.828125 284.46875 201.398438 286.582031 199.96875 C 286.953125 199.65625 287.390625 199.40625 287.886719 199.46875 C 288.324219 199.53125 288.632812 199.90625 288.945312 200.277344 M 285.960938 209.605469 C 286.644531 210.660156 288.199219 210.972656 289.316406 210.351562 C 290.375 209.730469 290.746094 208.175781 290.125 207.054688 C 288.386719 206.621094 286.332031 207.863281 285.960938 209.667969 " fill-opacity="1" fill-rule="nonzero"/><path fill="#000000" d="M 288.695312 221.542969 C 287.015625 224.839844 283.96875 227.324219 280.488281 228.445312 C 280.054688 228.570312 279.617188 228.632812 279.183594 228.570312 C 278.375 228.320312 278 227.449219 277.691406 226.640625 C 276.820312 224.402344 275.949219 222.164062 275.078125 219.863281 C 278.746094 218 283.039062 217.4375 286.953125 218.433594 C 287.886719 218.683594 288.945312 219.117188 289.132812 220.050781 C 289.191406 220.609375 288.945312 221.109375 288.695312 221.542969 M 283.785156 219.304688 C 281.980469 219.429688 281.421875 222.351562 282.976562 223.222656 C 284.59375 224.03125 286.644531 221.855469 285.710938 220.300781 C 285.089844 219.988281 284.40625 219.617188 283.722656 219.242188 " fill-opacity="1" fill-rule="nonzero"/><path fill="#000000" d="M 37.492188 184.980469 C 37.429688 186.289062 36.125 187.21875 34.820312 187.46875 C 33.578125 187.78125 32.207031 187.59375 30.902344 187.71875 C 29.039062 187.902344 27.234375 188.648438 25.367188 189.085938 C 22.074219 189.894531 18.46875 189.519531 15.359375 188.152344 C 25.367188 185.417969 35.628906 183.550781 45.949219 182.496094 C 43.648438 184.421875 40.476562 185.355469 37.492188 184.980469 " fill-opacity="1" fill-rule="nonzero"/><path fill="#000000" d="M 17.347656 219.242188 C 18.714844 216.816406 16.042969 214.082031 13.429688 213.148438 C 10.820312 212.214844 7.710938 211.71875 6.28125 209.355469 C 7.089844 209.292969 7.898438 209.230469 8.703125 209.167969 C 12.1875 208.859375 16.230469 208.796875 18.527344 211.46875 C 20.207031 213.398438 20.394531 216.132812 21.078125 218.621094 C 21.699219 221.109375 23.503906 223.78125 26.054688 223.65625 C 25.679688 224.839844 23.9375 224.777344 22.757812 224.464844 C 19.214844 223.53125 15.484375 222.414062 13.304688 219.554688 C 11.691406 217.4375 8.890625 216.816406 6.34375 216.382812 C 9.824219 213.832031 15.484375 215.324219 17.347656 219.242188 " fill-opacity="1" fill-rule="nonzero"/><path fill="#000000" d="M 81.390625 180.257812 C 96.003906 178.949219 110.742188 178.453125 125.414062 178.949219 C 127.03125 178.949219 129.144531 179.449219 129.269531 181.066406 C 124.917969 181.1875 120.566406 181.3125 116.210938 181.4375 C 112.542969 181.5 108.8125 181.625 105.144531 181.6875 C 97.183594 181.933594 89.101562 182.121094 81.390625 180.257812 " fill-opacity="1" fill-rule="nonzero"/><path fill="#000000" d="M 286.332031 195.863281 C 292.675781 192.195312 301.007812 192.503906 307.039062 196.609375 C 304.675781 195.242188 301.378906 196.296875 299.640625 198.414062 C 297.835938 200.527344 297.277344 203.386719 297.089844 206.183594 C 296.902344 208.921875 297.027344 211.71875 296.40625 214.390625 C 295.285156 214.453125 294.480469 213.210938 294.480469 212.089844 C 294.480469 210.972656 294.976562 209.914062 295.164062 208.796875 C 295.410156 207.429688 295.226562 206 294.976562 204.628906 C 294.480469 202.390625 293.792969 200.152344 292.363281 198.351562 C 290.933594 196.609375 288.570312 195.429688 286.332031 195.863281 M 296.46875 200.464844 C 296.902344 198.597656 298.023438 196.859375 299.578125 195.738281 C 297.277344 194.558594 294.355469 194.621094 292.117188 195.800781 C 293.421875 197.230469 294.789062 198.660156 296.09375 200.089844 " fill-opacity="1" fill-rule="nonzero"/><path fill="#000000" d="M 64.914062 214.269531 C 64.417969 213.957031 63.917969 213.707031 63.484375 213.398438 C 63.359375 211.40625 63.296875 209.355469 63.171875 207.367188 C 62.988281 203.574219 62.488281 199.21875 59.257812 197.230469 C 57.453125 196.113281 55.152344 196.050781 53.039062 196.484375 C 59.753906 192.503906 68.582031 192.382812 75.359375 196.234375 C 71.566406 195.054688 67.402344 197.976562 65.972656 201.707031 C 64.542969 205.4375 65.164062 209.542969 66.15625 213.398438 C 65.722656 213.707031 65.289062 213.957031 64.914062 214.269531 M 65.472656 195.117188 C 63.917969 194.679688 62.242188 194.929688 60.8125 195.738281 C 62.242188 197.167969 63.421875 198.847656 64.105469 200.714844 C 64.976562 198.722656 66.46875 197.105469 68.273438 195.988281 C 67.527344 195.367188 66.53125 194.992188 65.472656 194.992188 " fill-opacity="1" fill-rule="nonzero"/><path fill="#000000" d="M 272.03125 177.023438 C 265.253906 177.457031 258.476562 177.769531 251.699219 178.019531 C 245.234375 178.265625 238.765625 178.578125 232.238281 178.824219 C 238.578125 176.152344 245.605469 175.65625 252.445312 175.28125 C 287.390625 173.480469 322.457031 173.664062 357.402344 175.902344 C 338.066406 179.324219 318.230469 175.40625 298.582031 175.53125 C 289.753906 175.53125 280.863281 176.402344 272.03125 177.023438 " fill-opacity="1" fill-rule="nonzero"/><path fill="#000000" d="M 211.96875 204.382812 C 224.902344 204.070312 237.832031 203.757812 250.582031 205.8125 C 202.953125 205.875 155.382812 208.421875 108.003906 213.460938 C 128.398438 206.496094 150.347656 205.875 171.863281 205.375 C 185.230469 205.066406 198.597656 204.691406 211.96875 204.382812 " fill-opacity="1" fill-rule="nonzero"/><path fill="#000000" d="M 128.773438 219.117188 C 120.503906 219.988281 112.171875 220.175781 103.902344 219.675781 C 112.109375 217.9375 120.566406 217.4375 128.957031 216.941406 C 170.804688 214.578125 212.589844 212.214844 254.433594 209.792969 C 248.714844 212.835938 242.0625 213.398438 235.65625 213.832031 C 200.464844 216.257812 165.332031 218.746094 130.140625 221.167969 C 129.082031 221.292969 127.777344 221.230469 127.21875 220.300781 C 126.65625 219.367188 128.460938 218.0625 128.773438 219.117188 " fill-opacity="1" fill-rule="nonzero"/><path fill="#000000" d="M 219.863281 220.546875 C 232.300781 219.800781 244.796875 220.734375 256.921875 223.40625 C 204.878906 223.160156 152.835938 224.214844 100.855469 226.515625 C 114.96875 221.792969 130.203125 222.539062 145.0625 222.785156 C 163.03125 222.972656 180.941406 222.289062 198.785156 220.609375 C 205.6875 222.039062 212.835938 221.046875 219.863281 220.546875 " fill-opacity="1" fill-rule="nonzero"/><path fill="#000000" d="M 137.726562 180.816406 C 138.90625 177.457031 133.4375 174.226562 131.136719 176.960938 C 132.316406 173.851562 128.585938 170.867188 125.226562 170.679688 C 121.933594 170.554688 118.574219 171.925781 115.28125 171.550781 C 137.789062 154.453125 165.269531 144.007812 193.5 141.765625 C 205.4375 140.898438 217.4375 141.394531 229.316406 142.511719 C 255.988281 144.9375 282.355469 150.285156 307.847656 158.308594 C 293.609375 165.394531 277.070312 165.953125 261.152344 166.390625 C 223.46875 167.386719 185.789062 168.378906 148.109375 169.375 C 145.4375 169.4375 142.574219 169.5625 140.398438 171.117188 C 138.160156 172.734375 137.289062 176.277344 139.28125 178.078125 C 141.457031 180.007812 145.4375 178.765625 147.175781 181.066406 C 144.066406 181.625 140.835938 181.5 137.726562 180.816406 M 191.511719 159.300781 C 191.261719 155.570312 194.058594 152.460938 196.671875 149.851562 C 195.863281 152.710938 195.117188 155.632812 194.308594 158.554688 C 193.996094 159.921875 194.496094 162.101562 195.800781 161.539062 C 197.789062 157.933594 199.160156 153.953125 199.71875 149.851562 C 200.960938 149.539062 201.769531 147.984375 201.273438 146.742188 C 199.96875 147.800781 198.039062 147.238281 196.421875 146.867188 C 192.691406 146.058594 188.835938 146.367188 185.105469 146.867188 C 172.421875 148.546875 159.921875 151.964844 148.171875 156.9375 C 149.105469 158.183594 151.09375 157.4375 152.460938 156.691406 C 153.832031 155.882812 155.820312 155.261719 156.691406 156.566406 C 154.636719 157.375 154.578125 160.917969 156.628906 161.789062 C 155.632812 161.914062 155.570312 163.53125 156.316406 164.214844 C 157.0625 164.835938 158.183594 164.898438 159.238281 164.835938 C 170.492188 164.523438 181.8125 164.277344 193.066406 163.964844 C 192.382812 162.472656 191.636719 160.917969 191.511719 159.300781 M 218.683594 146.246094 C 217.253906 146.121094 215.699219 145.996094 214.390625 146.679688 C 213.148438 147.363281 212.402344 149.292969 213.335938 150.347656 C 215.511719 151.589844 217.316406 153.707031 217.8125 156.191406 C 218.246094 158.617188 217.191406 161.414062 215.015625 162.660156 C 227.199219 162.597656 239.386719 162.535156 251.574219 162.410156 C 252.011719 159.863281 248.964844 158.058594 248.21875 155.570312 C 247.65625 153.769531 248.34375 151.53125 247.160156 150.097656 C 246.226562 148.980469 244.734375 148.792969 243.367188 148.667969 C 235.160156 147.859375 226.953125 147.050781 218.683594 146.246094 M 300.882812 159.738281 C 300.945312 158.246094 299.265625 157.3125 297.835938 156.875 C 292.800781 155.382812 287.515625 155.011719 282.355469 154.453125 C 275.699219 153.707031 269.046875 152.460938 262.582031 150.785156 C 262.953125 152.523438 263.265625 154.390625 264.257812 155.882812 C 265.191406 157.4375 266.871094 158.617188 268.613281 158.554688 C 279.367188 157.871094 290.1875 158.246094 300.882812 159.738281 M 147.113281 159.238281 C 146.617188 159.117188 146.121094 158.992188 145.621094 159.117188 C 145 159.238281 144.503906 159.613281 143.945312 159.921875 C 142.574219 160.730469 140.835938 160.855469 139.21875 161.105469 C 134.183594 161.976562 129.582031 164.523438 125.105469 167.074219 C 128.335938 168.566406 132.003906 168.378906 135.550781 167.945312 C 141.144531 167.199219 146.742188 165.832031 152.089844 163.964844 C 152.648438 161.476562 149.601562 159.921875 147.113281 159.238281 M 208.359375 155.011719 C 209.851562 153.332031 210.226562 150.90625 210.476562 148.667969 C 210.597656 147.984375 210.660156 147.238281 210.351562 146.617188 C 210.039062 145.996094 209.105469 145.558594 208.609375 146.058594 C 203.636719 149.601562 200.089844 155.011719 198.785156 160.980469 C 201.023438 159.675781 203.199219 158.429688 205.4375 157.1875 C 206.496094 156.566406 207.550781 155.945312 208.359375 155.011719 M 255.367188 158.058594 C 256.859375 158.492188 258.664062 158.492188 259.660156 159.675781 C 260.21875 160.359375 260.34375 161.355469 260.839844 162.101562 C 261.335938 162.785156 262.644531 163.09375 263.015625 162.347656 C 261.027344 158.308594 258.789062 154.453125 256.363281 150.722656 C 254.683594 149.851562 252.695312 149.476562 250.828125 149.664062 C 249.773438 153.023438 251.949219 157.125 255.367188 158.058594 M 210.660156 156.753906 C 209.667969 157.933594 211.285156 159.863281 212.777344 159.488281 C 214.207031 159.117188 214.953125 157.375 214.703125 155.882812 C 214.515625 154.390625 213.523438 153.085938 212.589844 151.902344 C 211.65625 153.332031 211.097656 155.074219 211.035156 156.816406 " fill-opacity="1" fill-rule="nonzero"/></svg>