<svg xmlns="http://www.w3.org/2000/svg" xmlns:xlink="http://www.w3.org/1999/xlink" width="500" zoomAndPan="magnify" viewBox="0 0 375 374.999991" height="500" preserveAspectRatio="xMidYMid meet" version="1.0"><defs><clipPath id="ae4e9da347"><path d="M 197 80.625 L 216 80.625 L 216 235 L 197 235 Z M 197 80.625 " clip-rule="nonzero"/></clipPath><clipPath id="9104b5e806"><path d="M 128.832031 216.894531 L 290.738281 216.894531 L 290.738281 294.347656 L 128.832031 294.347656 Z M 128.832031 216.894531 " clip-rule="nonzero"/></clipPath><clipPath id="2d621644f3"><path d="M 247.796875 160.621094 L 375 160.621094 L 375 215.90625 L 247.796875 215.90625 Z M 247.796875 160.621094 " clip-rule="nonzero"/></clipPath></defs><path fill="#231f20" d="M 36.246094 242.933594 L 36.246094 187.390625 C 36.246094 185.546875 37.746094 184.042969 39.59375 184.042969 L 90.785156 184.042969 C 92.628906 184.042969 94.132812 185.546875 94.132812 187.390625 L 94.132812 242.933594 L 100.824219 242.933594 L 100.824219 187.390625 C 100.824219 181.855469 96.324219 177.351562 90.785156 177.351562 L 39.59375 177.351562 C 34.058594 177.351562 29.554688 181.855469 29.554688 187.390625 L 29.554688 242.933594 L 36.246094 242.933594 " fill-opacity="1" fill-rule="nonzero"/><path fill="#231f20" d="M 67.199219 242.765625 L 63.183594 242.765625 L 63.183594 181.203125 L 67.199219 181.203125 L 67.199219 242.765625 " fill-opacity="1" fill-rule="nonzero"/><path fill="#231f20" d="M 139.191406 284.757812 L 0 284.757812 L 0 221.183594 L 31.449219 221.183594 L 31.449219 224.753906 L 2.898438 224.753906 L 2.898438 277.398438 L 139.191406 277.398438 L 139.191406 284.757812 " fill-opacity="1" fill-rule="nonzero"/><path fill="#231f20" d="M 141.195312 247.058594 L 1.113281 247.058594 L 1.113281 240.589844 L 141.195312 240.589844 L 141.195312 247.058594 " fill-opacity="1" fill-rule="nonzero"/><path fill="#231f20" d="M 99.261719 221.628906 L 138.746094 221.628906 L 139.191406 244.160156 L 136.515625 244.160156 L 136.515625 225.199219 L 98.144531 225.199219 L 99.261719 221.628906 " fill-opacity="1" fill-rule="nonzero"/><path fill="#231f20" d="M 40.042969 266.464844 L 15.054688 265.6875 L 15.054688 273.601562 L 27.882812 273.046875 L 18.066406 272.542969 L 18.066406 267.132812 L 40.042969 266.464844 " fill-opacity="1" fill-rule="nonzero"/><path fill="#231f20" d="M 126.136719 266.464844 L 101.160156 265.6875 L 101.160156 273.601562 L 113.984375 273.046875 L 104.167969 272.542969 L 104.167969 267.132812 L 126.136719 266.464844 " fill-opacity="1" fill-rule="nonzero"/><path fill="#231f20" d="M 112.867188 237.910156 C 110.097656 237.910156 107.847656 235.664062 107.847656 232.894531 C 107.847656 230.125 110.097656 227.875 112.867188 227.875 C 115.164062 227.875 117.074219 229.425781 117.671875 231.527344 C 117.074219 228.539062 114.445312 226.285156 111.28125 226.285156 C 107.675781 226.285156 104.753906 229.207031 104.753906 232.8125 C 104.753906 236.414062 107.675781 239.335938 111.28125 239.335938 C 114.09375 239.335938 116.46875 237.542969 117.386719 235.046875 C 116.578125 236.738281 114.867188 237.910156 112.867188 237.910156 " fill-opacity="1" fill-rule="nonzero"/><path fill="#231f20" d="M 127.171875 237.910156 C 124.402344 237.910156 122.15625 235.664062 122.15625 232.894531 C 122.15625 230.125 124.402344 227.875 127.171875 227.875 C 129.464844 227.875 131.378906 229.425781 131.980469 231.527344 C 131.378906 228.539062 128.746094 226.285156 125.585938 226.285156 C 121.980469 226.285156 119.058594 229.207031 119.058594 232.8125 C 119.058594 236.414062 121.980469 239.335938 125.585938 239.335938 C 128.394531 239.335938 130.777344 237.542969 131.6875 235.046875 C 130.882812 236.738281 129.171875 237.910156 127.171875 237.910156 " fill-opacity="1" fill-rule="nonzero"/><path fill="#231f20" d="M 14.496094 237.910156 C 11.726562 237.910156 9.480469 235.664062 9.480469 232.894531 C 9.480469 230.125 11.726562 227.875 14.496094 227.875 C 16.792969 227.875 18.707031 229.425781 19.304688 231.527344 C 18.707031 228.539062 16.074219 226.285156 12.910156 226.285156 C 9.308594 226.285156 6.386719 229.207031 6.386719 232.8125 C 6.386719 236.414062 9.308594 239.335938 12.910156 239.335938 C 15.722656 239.335938 18.101562 237.542969 19.015625 235.046875 C 18.207031 236.738281 16.5 237.910156 14.496094 237.910156 " fill-opacity="1" fill-rule="nonzero"/><path fill="#231f20" d="M 28.804688 237.910156 C 26.03125 237.910156 23.785156 235.664062 23.785156 232.894531 C 23.785156 230.125 26.03125 227.875 28.804688 227.875 C 31.097656 227.875 33.007812 229.425781 33.605469 231.527344 C 33.011719 228.539062 30.375 226.285156 27.210938 226.285156 C 23.609375 226.285156 20.6875 229.207031 20.6875 232.8125 C 20.6875 236.414062 23.609375 239.335938 27.210938 239.335938 C 30.027344 239.335938 32.402344 237.542969 33.320312 235.046875 C 32.511719 236.738281 30.800781 237.910156 28.804688 237.910156 " fill-opacity="1" fill-rule="nonzero"/><path fill="#231f20" d="M 59 242.097656 L 57.496094 187.226562 L 55.988281 241.761719 Z M 59 242.097656 " fill-opacity="1" fill-rule="nonzero"/><path fill="#231f20" d="M 52.828125 243.433594 L 51.417969 192.074219 L 49.996094 243.433594 Z M 52.828125 243.433594 " fill-opacity="1" fill-rule="nonzero"/><path fill="#231f20" d="M 46.511719 243.433594 L 45.28125 198.601562 L 44.042969 243.433594 Z M 46.511719 243.433594 " fill-opacity="1" fill-rule="nonzero"/><path fill="#231f20" d="M 41.097656 243.433594 L 40.09375 206.960938 L 39.089844 243.433594 Z M 41.097656 243.433594 " fill-opacity="1" fill-rule="nonzero"/><path fill="#231f20" d="M 71.210938 241.929688 L 72.714844 187.054688 L 74.222656 241.59375 Z M 71.210938 241.929688 " fill-opacity="1" fill-rule="nonzero"/><path fill="#231f20" d="M 77.609375 242.820312 L 79.015625 191.460938 L 80.433594 242.820312 Z M 77.609375 242.820312 " fill-opacity="1" fill-rule="nonzero"/><path fill="#231f20" d="M 83.699219 243.269531 L 84.929688 198.433594 L 86.164062 243.269531 Z M 83.699219 243.269531 " fill-opacity="1" fill-rule="nonzero"/><path fill="#231f20" d="M 89.113281 243.269531 L 90.117188 206.796875 L 91.121094 243.269531 Z M 89.113281 243.269531 " fill-opacity="1" fill-rule="nonzero"/><path fill="#231f20" d="M 106.398438 119.691406 L 188.484375 111.660156 L 188.484375 144.226562 L 184.691406 143.78125 L 184.691406 115.007812 L 106.398438 119.691406 " fill-opacity="1" fill-rule="nonzero"/><path fill="#231f20" d="M 74.949219 152.496094 L 74.085938 154.472656 L 121.121094 152.035156 Z M 74.949219 152.496094 " fill-opacity="1" fill-rule="nonzero"/><path fill="#231f20" d="M 72.472656 158.082031 L 71.183594 161.042969 L 141.640625 157.390625 Z M 72.472656 158.082031 " fill-opacity="1" fill-rule="nonzero"/><path fill="#231f20" d="M 69.578125 164.722656 L 67.960938 168.433594 L 156.144531 163.859375 Z M 69.578125 164.722656 " fill-opacity="1" fill-rule="nonzero"/><path fill="#231f20" d="M 183.132812 114.117188 C 183.132812 114.117188 164.617188 121.476562 162.386719 139.320312 C 162.363281 139.507812 162.347656 139.695312 162.328125 139.878906 L 161.160156 139.878906 L 161.160156 169.484375 L 66.917969 171.890625 L 37.753906 177.578125 L 96.589844 179.027344 L 166.40625 172.109375 L 166.40625 142 C 166.40625 142 166.40625 125.9375 186.480469 115.007812 L 183.132812 114.117188 " fill-opacity="1" fill-rule="nonzero"/><path fill="#231f20" d="M 97.925781 183.265625 L 156.367188 180.367188 L 98.59375 186.832031 Z M 97.925781 183.265625 " fill-opacity="1" fill-rule="nonzero"/><path fill="#231f20" d="M 175.347656 210.824219 C 175.347656 213.78125 172.949219 216.960938 169.996094 216.960938 L 166.828125 216.960938 C 163.871094 216.960938 161.472656 213.78125 161.472656 210.824219 L 161.472656 185.929688 C 161.472656 182.972656 163.871094 179.347656 166.828125 179.347656 L 169.996094 179.347656 C 172.949219 179.347656 175.347656 182.972656 175.347656 185.929688 Z M 172.648438 176.128906 L 166.179688 176.128906 C 162.484375 176.128906 159.488281 179.121094 159.488281 182.816406 L 159.488281 213.933594 C 159.488281 217.632812 162.484375 220.625 166.179688 220.625 L 172.648438 220.625 C 176.347656 220.625 179.339844 217.632812 179.339844 213.933594 L 179.339844 182.816406 C 179.339844 179.121094 176.347656 176.128906 172.648438 176.128906 " fill-opacity="1" fill-rule="nonzero"/><path fill="#231f20" d="M 145.539062 189.65625 L 145.539062 209.03125 L 148.066406 209.03125 L 148.066406 189.457031 L 145.539062 189.65625 " fill-opacity="1" fill-rule="nonzero"/><path fill="#231f20" d="M 140.242188 190.070312 L 140.242188 208.972656 L 142.769531 208.972656 L 142.769531 189.875 L 140.242188 190.070312 " fill-opacity="1" fill-rule="nonzero"/><path fill="#231f20" d="M 134.214844 190.542969 L 134.214844 209.140625 L 137.027344 209.140625 L 137.027344 190.328125 L 134.214844 190.542969 " fill-opacity="1" fill-rule="nonzero"/><path fill="#231f20" d="M 127.367188 191.085938 L 127.367188 209.140625 L 130.488281 209.140625 L 130.488281 190.835938 L 127.367188 191.085938 " fill-opacity="1" fill-rule="nonzero"/><path fill="#231f20" d="M 170.585938 172.167969 L 193.839844 175.175781 L 193.839844 151.589844 L 189.324219 151.085938 L 189.324219 172.835938 L 170.585938 172.167969 " fill-opacity="1" fill-rule="nonzero"/><path fill="#231f20" d="M 213.078125 157.109375 L 213.078125 183.878906 L 220.941406 183.710938 L 220.941406 157.945312 L 213.078125 157.109375 " fill-opacity="1" fill-rule="nonzero"/><path fill="#231f20" d="M 107.496094 119.625 L 113.71875 119.234375 L 113.71875 97.554688 L 101.878906 81.898438 C 99.667969 87.113281 100.671875 91.53125 100.671875 91.53125 L 107.496094 100.164062 L 107.496094 119.625 " fill-opacity="1" fill-rule="nonzero"/><g clip-path="url(#ae4e9da347)"><path fill="#231f20" d="M 212.050781 87.53125 C 212.050781 87.53125 201.832031 98.605469 201.511719 98.953125 C 201.511719 99.410156 201.511719 231.667969 201.511719 231.667969 C 201.511719 232.039062 201.152344 232.335938 200.707031 232.335938 C 200.261719 232.335938 199.902344 232.039062 199.902344 231.667969 L 199.902344 98.496094 L 210.777344 86.714844 C 211.046875 86.425781 211.550781 86.367188 211.902344 86.59375 C 212.109375 86.726562 212.214844 86.921875 212.214844 87.121094 C 212.214844 87.265625 212.164062 87.410156 212.050781 87.53125 Z M 213.289062 80.65625 L 197.496094 98.054688 L 197.496094 234.792969 L 205.796875 234.125 L 205.796875 100.953125 L 214.894531 91.363281 C 214.894531 91.363281 216.230469 86.453125 213.289062 80.65625 " fill-opacity="1" fill-rule="nonzero"/></g><path fill="#231f20" d="M 199.921875 144.070312 L 165.957031 136.867188 L 82.976562 142.667969 C 82.976562 142.667969 87.21875 127.945312 101.941406 120.363281 C 101.941406 120.363281 87.214844 122.59375 76.957031 147.796875 L 164.84375 143.558594 L 199.527344 149.605469 L 199.921875 144.070312 " fill-opacity="1" fill-rule="nonzero"/><path fill="#231f20" d="M 229.976562 163.636719 L 224.84375 149.359375 L 204.566406 145.058594 L 204.859375 150.542969 L 222.390625 153.597656 L 226.40625 164.527344 L 229.753906 231.890625 L 233.101562 231 L 229.976562 163.636719 " fill-opacity="1" fill-rule="nonzero"/><path fill="#231f20" d="M 231.3125 224.976562 C 231.3125 224.976562 236 217.617188 242.6875 216.726562 C 249.382812 215.832031 262.097656 214.941406 262.097656 214.941406 L 240.015625 214.269531 C 240.015625 214.269531 234.882812 215.164062 230.644531 220.070312 L 231.3125 224.976562 " fill-opacity="1" fill-rule="nonzero"/><path fill="#231f20" d="M 264.328125 241.59375 C 263.652344 241.59375 263.097656 240.171875 263.097656 238.417969 C 263.097656 236.660156 263.652344 235.234375 264.328125 235.234375 C 265.007812 235.234375 265.554688 236.660156 265.554688 238.417969 C 265.554688 240.171875 265.007812 241.59375 264.328125 241.59375 Z M 265.667969 235.015625 C 265.667969 235.015625 263.546875 232.449219 261.875 231.113281 C 261.875 231.113281 258.742188 229.714844 257.632812 236.6875 C 256.519531 243.714844 260.421875 247.058594 262.097656 246.390625 C 262.097656 246.390625 264.773438 243.9375 265.890625 242.152344 C 267.003906 240.367188 266.222656 236.460938 265.667969 235.015625 " fill-opacity="1" fill-rule="nonzero"/><path fill="#231f20" d="M 163.855469 263.25 C 163.027344 263.25 162.351562 261.371094 162.351562 259.050781 C 162.351562 256.738281 163.027344 254.855469 163.855469 254.855469 C 164.6875 254.855469 165.363281 256.738281 165.363281 259.050781 C 165.363281 261.371094 164.6875 263.25 163.855469 263.25 Z M 165.5 254.5625 C 165.5 254.5625 162.898438 251.179688 160.84375 249.410156 C 160.84375 249.410156 157 247.566406 155.640625 256.769531 C 154.273438 266.042969 159.0625 270.460938 161.117188 269.578125 C 161.117188 269.578125 164.40625 266.34375 165.773438 263.984375 C 167.144531 261.628906 166.1875 256.476562 165.5 254.5625 " fill-opacity="1" fill-rule="nonzero"/><path fill="#231f20" d="M 283.859375 238.8125 C 283.277344 238.8125 282.804688 237.589844 282.804688 236.074219 C 282.804688 234.558594 283.277344 233.332031 283.859375 233.332031 C 284.445312 233.332031 284.921875 234.558594 284.921875 236.074219 C 284.921875 237.589844 284.445312 238.8125 283.859375 238.8125 Z M 285.011719 233.136719 C 285.011719 233.136719 283.183594 230.929688 281.742188 229.769531 C 281.742188 229.769531 279.042969 228.566406 278.085938 234.582031 C 277.125 240.640625 280.496094 243.527344 281.9375 242.949219 C 281.9375 242.949219 284.246094 240.835938 285.207031 239.292969 C 286.167969 237.753906 285.496094 234.390625 285.011719 233.136719 " fill-opacity="1" fill-rule="nonzero"/><path fill="#231f20" d="M 20.6875 283.082031 C 20.6875 283.082031 22.363281 291.28125 31.5625 292.121094 C 40.765625 292.953125 48.792969 290.945312 48.792969 290.945312 C 48.792969 290.945312 55.484375 285.59375 56.324219 281.410156 L 20.6875 283.082031 " fill-opacity="1" fill-rule="nonzero"/><path fill="#231f20" d="M 158.597656 281.574219 C 153.429688 281.574219 149.234375 272.113281 149.234375 260.445312 C 149.234375 248.773438 153.429688 239.3125 158.597656 239.3125 C 163.769531 239.3125 167.960938 248.773438 167.960938 260.445312 C 167.960938 272.113281 163.769531 281.574219 158.597656 281.574219 Z M 157.984375 233.460938 C 150.476562 233.460938 144.132812 245.84375 144.132812 260.496094 C 144.132812 275.15625 150.476562 287.535156 157.984375 287.535156 C 165.492188 287.535156 171.832031 275.15625 171.832031 260.496094 C 171.832031 245.84375 165.492188 233.460938 157.984375 233.460938 " fill-opacity="1" fill-rule="nonzero"/><g clip-path="url(#9104b5e806)"><path fill="#231f20" d="M 280.277344 253.527344 C 275.535156 253.527344 271.695312 245.9375 271.695312 236.578125 C 271.695312 227.214844 275.535156 219.625 280.277344 219.625 C 285.019531 219.625 288.859375 227.214844 288.859375 236.578125 C 288.859375 245.9375 285.019531 253.527344 280.277344 253.527344 Z M 260.175781 258.660156 C 254.675781 258.660156 250.21875 249.855469 250.21875 239 C 250.21875 228.144531 254.675781 219.34375 260.175781 219.34375 C 265.667969 219.34375 270.125 228.144531 270.125 239 C 270.125 249.855469 265.667969 258.660156 260.175781 258.660156 Z M 237.226562 253.972656 L 209.675781 260.667969 C 209.675781 260.667969 216.8125 258.433594 218.152344 252.078125 C 219.492188 245.722656 215.367188 236.574219 207.667969 237.355469 L 232.875 233.675781 C 232.875 233.675781 237.78125 234.011719 240.683594 239.027344 C 243.582031 244.046875 241.351562 251.96875 237.226562 253.972656 Z M 206.558594 260.839844 L 178.230469 266.363281 L 178 241.59375 L 206.558594 237.800781 Z M 206.558594 271.039062 L 178.335938 278.066406 L 178.277344 271.378906 L 206.558594 265.160156 Z M 157.984375 291.550781 C 147.964844 291.550781 140.121094 277.910156 140.121094 260.496094 C 140.121094 243.085938 147.964844 229.445312 157.984375 229.445312 C 168 229.445312 175.847656 243.085938 175.847656 260.496094 C 175.847656 277.910156 168 291.550781 157.984375 291.550781 Z M 279.496094 217.167969 C 272.804688 216.5 255.851562 217.394531 255.851562 217.394531 C 255.851562 217.394531 247.820312 217.835938 245.8125 240.148438 L 243.804688 240.367188 C 243.804688 240.367188 242.019531 231 230.867188 228.992188 L 172.425781 235.90625 C 172.425781 235.90625 168.191406 223.191406 157.035156 223.859375 C 145.878906 224.527344 138.074219 238.136719 135.621094 246.167969 L 135.621094 281.855469 L 128.929688 282.75 C 128.929688 282.75 129.152344 291.445312 140.75 293.457031 C 152.351562 295.464844 162.609375 293.457031 162.609375 293.457031 C 162.609375 293.457031 168.855469 292.339844 173.984375 282.527344 L 212.355469 272.042969 L 212.355469 264.683594 L 234.214844 258.882812 C 234.214844 258.882812 234.4375 260.886719 237.558594 261.335938 C 240.683594 261.78125 257.1875 261.335938 257.1875 261.335938 L 282.730469 254.976562 C 282.730469 254.976562 289.125 253.511719 290.421875 241.257812 C 291.984375 226.539062 286.183594 217.835938 279.496094 217.167969 " fill-opacity="1" fill-rule="nonzero"/></g><path fill="#231f20" d="M 176.613281 265.851562 L 178.5 267.75 L 207.945312 238.417969 L 206.058594 236.523438 L 176.613281 265.851562 " fill-opacity="1" fill-rule="nonzero"/><path fill="#231f20" d="M 176.816406 242.375 L 206.480469 262.113281 L 207.964844 259.886719 L 178.300781 240.148438 L 176.816406 242.375 " fill-opacity="1" fill-rule="nonzero"/><path fill="#231f20" d="M 273.199219 138.832031 C 277.90625 142.3125 280.519531 147.246094 280.519531 147.246094 C 321.082031 144.703125 360.242188 157.804688 360.242188 157.804688 C 318.777344 141.875 273.199219 138.832031 273.199219 138.832031 " fill-opacity="1" fill-rule="nonzero"/><path fill="#231f20" d="M 267.417969 153.785156 C 269.71875 154.886719 273.328125 158.457031 273.328125 158.457031 C 306.121094 149.34375 344.375 157.488281 344.375 157.488281 C 298.09375 145.8125 267.417969 153.785156 267.417969 153.785156 " fill-opacity="1" fill-rule="nonzero"/><path fill="#231f20" d="M 270.945312 174.425781 C 291.894531 155.652344 330.042969 158.015625 330.042969 158.015625 C 285.433594 153.285156 261.691406 169.382812 261.691406 169.382812 C 268.878906 171.691406 270.945312 174.425781 270.945312 174.425781 " fill-opacity="1" fill-rule="nonzero"/><path fill="#231f20" d="M 361.371094 237.523438 C 358.171875 237.628906 355.410156 232.808594 355.203125 226.75 C 355 220.691406 357.433594 215.699219 360.628906 215.589844 C 363.835938 215.480469 366.597656 220.304688 366.804688 226.359375 C 367.007812 232.414062 364.578125 237.414062 361.371094 237.523438 Z M 346.199219 240.09375 C 342.832031 240.121094 340.066406 234.988281 340.011719 228.625 C 339.957031 222.265625 342.644531 217.082031 346.007812 217.054688 C 349.375 217.027344 352.144531 222.164062 352.199219 228.527344 C 352.25 234.886719 349.566406 240.066406 346.199219 240.09375 Z M 362.4375 213.632812 L 330.574219 214.652344 L 330.601562 234.917969 L 289.152344 242.734375 L 286.660156 248.867188 L 319.542969 241.269531 C 319.542969 241.269531 323.933594 246.503906 331.71875 242.320312 C 331.71875 242.320312 345.09375 245.6875 352.085938 238.980469 C 352.085938 238.980469 361.851562 242.71875 367.460938 235.328125 C 373.066406 227.9375 368.140625 213.675781 362.4375 213.632812 " fill-opacity="1" fill-rule="nonzero"/><path fill="#231f20" d="M 250.574219 99.609375 L 373.691406 147.046875 L 248.644531 104.679688 Z M 250.574219 99.609375 " fill-opacity="1" fill-rule="nonzero"/><g clip-path="url(#2d621644f3)"><path fill="#231f20" d="M 248.644531 215.488281 L 375.019531 214.398438 L 373.933594 160.808594 L 371.761719 211.863281 L 247.917969 209.691406 L 248.644531 215.488281 " fill-opacity="1" fill-rule="nonzero"/></g><path fill="#231f20" d="M 281.234375 213.859375 C 281.234375 213.859375 296.261719 218.566406 292.277344 243.910156 L 295.535156 243.007812 L 295.535156 211.863281 L 281.234375 213.859375 " fill-opacity="1" fill-rule="nonzero"/><path fill="#231f20" d="M 203.136719 105.453125 L 203.136719 107.855469 L 246.226562 104.5625 L 246.226562 215.609375 L 250.574219 215.125 L 250.574219 99.609375 L 203.136719 105.453125 " fill-opacity="1" fill-rule="nonzero"/><path fill="#231f20" d="M 151.597656 111.804688 L 198.914062 108.183594 L 198.914062 105.972656 Z M 151.597656 111.804688 " fill-opacity="1" fill-rule="nonzero"/><path fill="#231f20" d="M 249.128906 203.054688 L 363.070312 206.917969 L 248.644531 199.554688 Z M 249.128906 203.054688 " fill-opacity="1" fill-rule="nonzero"/><path fill="#231f20" d="M 248.644531 193.882812 L 333.195312 199.011719 L 248.101562 190.679688 Z M 248.644531 193.882812 " fill-opacity="1" fill-rule="nonzero"/><path fill="#231f20" d="M 248.824219 185.429688 L 303.683594 190.863281 L 248.28125 182.894531 Z M 248.824219 185.429688 " fill-opacity="1" fill-rule="nonzero"/></svg>