<svg xmlns="http://www.w3.org/2000/svg" xmlns:xlink="http://www.w3.org/1999/xlink" width="500" zoomAndPan="magnify" viewBox="0 0 375 374.999991" height="500" preserveAspectRatio="xMidYMid meet" version="1.0"><defs><clipPath id="af8200a70a"><path d="M 1 96.960938 L 375 96.960938 L 375 256.710938 L 1 256.710938 Z M 1 96.960938 " clip-rule="nonzero"/></clipPath></defs><g clip-path="url(#af8200a70a)"><path fill="#000000" d="M 12.355469 180.84375 C 12.5625 178.019531 12.988281 175.210938 13.558594 172.425781 C 12.648438 172.65625 11.835938 172.972656 11.191406 173.421875 C 11.191406 173.519531 11.167969 173.59375 11.167969 173.691406 L 11.007812 175.378906 C 10.839844 177.179688 10.667969 179.175781 10.5 181.171875 C 11.128906 181.046875 11.738281 180.9375 12.355469 180.84375 Z M 15.4375 206.996094 C 15.390625 206.875 15.351562 206.738281 15.339844 206.628906 C 15.304688 206.472656 15.21875 206.105469 15.148438 206.007812 C 15.109375 206.007812 14.988281 205.960938 14.550781 205.9375 C 13.921875 205.898438 13.253906 205.914062 12.621094 205.996094 L 12.222656 206.007812 C 12.066406 206.035156 11.761719 206.046875 11.542969 206.070312 C 11.53125 206.398438 11.589844 206.910156 11.605469 207.140625 C 11.628906 207.371094 11.640625 207.589844 11.640625 207.726562 C 11.664062 207.835938 11.664062 207.957031 11.664062 208.066406 C 11.796875 208.003906 11.90625 207.992188 12.003906 207.957031 Z M 16.738281 215.472656 C 16.710938 213.453125 16.398438 211.410156 15.972656 209.429688 L 12.683594 210.351562 C 12.648438 210.363281 12.5625 210.390625 12.488281 210.414062 C 12.488281 210.484375 12.488281 210.59375 12.5 210.765625 C 12.585938 211.859375 12.660156 212.980469 12.769531 214.074219 C 12.792969 214.207031 12.828125 214.488281 12.867188 214.585938 C 12.902344 214.621094 13.035156 214.683594 13.484375 214.816406 C 14.539062 215.109375 15.621094 215.316406 16.738281 215.472656 Z M 16.480469 218.527344 C 16.507812 218.332031 16.53125 218.160156 16.542969 217.980469 C 15.304688 217.796875 14.042969 217.566406 12.816406 217.214844 C 12.757812 217.199219 12.660156 217.175781 12.585938 217.140625 C 12.660156 217.675781 12.71875 218.210938 12.792969 218.734375 C 12.792969 218.734375 12.792969 218.769531 12.816406 218.792969 C 12.851562 218.792969 12.890625 218.792969 12.949219 218.792969 C 13.996094 218.769531 15.074219 218.757812 16.140625 218.695312 C 16.277344 218.695312 16.371094 218.671875 16.445312 218.671875 C 16.445312 218.636719 16.46875 218.574219 16.480469 218.527344 Z M 20.195312 135.105469 C 20.195312 134.789062 19.660156 134.132812 19.394531 133.839844 C 19.199219 133.609375 19.019531 133.339844 18.824219 133.097656 C 18.605469 132.804688 18.363281 132.441406 18.191406 132.308594 C 18.167969 132.308594 18.15625 132.308594 18.097656 132.308594 C 17.804688 132.308594 16.96875 132.402344 15.207031 133.476562 C 13.085938 134.765625 11.238281 136.527344 9.867188 138.582031 C 9.734375 138.789062 9.648438 138.949219 9.601562 139.046875 C 9.746094 139.09375 9.976562 139.15625 10.28125 139.179688 C 13.179688 139.421875 16.371094 138.414062 19.089844 136.359375 C 20.148438 135.589844 20.195312 135.191406 20.195312 135.105469 Z M 19.78125 153.242188 C 19.382812 153.046875 18.980469 152.851562 18.59375 152.65625 L 13.921875 162.886719 C 13.328125 164.214844 12.757812 165.480469 12.332031 166.769531 C 11.957031 167.949219 11.726562 169.199219 11.53125 170.464844 C 12.125 170.234375 12.757812 170.027344 13.460938 169.894531 C 14.285156 169.722656 15.136719 169.640625 15.949219 169.578125 C 15.972656 163.921875 17.269531 158.324219 19.78125 153.242188 Z M 29.5625 188.152344 C 29.660156 187.191406 29.636719 186.195312 29.613281 185.222656 L 28.582031 185.136719 C 27.34375 185.039062 26.09375 184.929688 24.855469 184.894531 C 24.296875 184.855469 23.835938 184.46875 23.703125 183.917969 C 23.628906 183.566406 23.53125 183.238281 23.4375 182.921875 C 23.410156 182.835938 23.398438 182.789062 23.375 182.703125 C 18.992188 182.496094 14.613281 182.859375 10.328125 183.738281 C 10.195312 185.5 10.109375 187.226562 10.074219 188.808594 C 13.386719 187.898438 16.664062 187.726562 19.332031 187.691406 C 20.875 187.679688 22.417969 187.714844 23.945312 187.726562 L 25.195312 187.75 C 26.09375 187.761719 26.882812 187.789062 27.71875 188.042969 C 28.179688 188.175781 28.714844 188.152344 29.273438 188.152344 Z M 30.039062 176.644531 C 30.039062 175.0625 30.0625 173.496094 30.074219 171.925781 L 18.167969 172.035156 C 17.5 172.035156 16.835938 172.035156 16.167969 172.082031 C 15.546875 174.855469 15.136719 177.679688 14.90625 180.511719 C 18.058594 180.171875 21.25 180.0625 24.457031 180.269531 C 24.988281 180.308594 25.4375 180.683594 25.582031 181.230469 C 25.65625 181.597656 25.753906 181.914062 25.851562 182.242188 C 25.851562 182.300781 25.863281 182.375 25.886719 182.433594 C 26.847656 182.496094 27.816406 182.570312 28.777344 182.640625 L 29.964844 182.738281 C 30.027344 180.707031 30.039062 178.675781 30.039062 176.644531 Z M 30.132812 169.433594 C 30.230469 165.953125 30.460938 162.449219 31.019531 158.957031 C 30.472656 159.566406 29.941406 160.164062 29.347656 160.699219 C 28.847656 161.148438 28.21875 161.621094 27.355469 161.792969 C 27.148438 161.828125 26.941406 161.867188 26.722656 161.867188 C 26.117188 161.867188 25.5 161.695312 24.855469 161.367188 C 23.179688 160.5625 21.847656 159.128906 21.152344 157.402344 C 21.082031 157.195312 21.007812 156.976562 20.949219 156.746094 C 19.320312 160.796875 18.460938 165.148438 18.4375 169.542969 Z M 30.304688 152.875 C 30.4375 152.546875 30.5 152.378906 30.5 152.292969 C 30.460938 152.292969 30.230469 152.160156 29.808594 152.011719 C 28.667969 151.585938 27.792969 151.441406 27.078125 151.515625 C 26.398438 151.613281 25.8125 151.953125 25.597656 152.378906 C 25.367188 152.875 24.953125 153.21875 24.46875 153.375 C 24.273438 154.117188 24.371094 155.101562 24.722656 155.976562 C 25.039062 156.828125 25.71875 157.535156 26.519531 157.9375 C 26.554688 157.960938 26.589844 157.972656 26.628906 157.972656 C 26.664062 157.9375 26.722656 157.898438 26.785156 157.839844 C 28.3125 156.476562 29.515625 154.75 30.304688 152.875 Z M 24.101562 223.015625 L 31.53125 224.023438 C 30.875 220.460938 30.363281 216.847656 30.0625 213.246094 C 29.429688 205.707031 29.539062 198.089844 29.746094 190.644531 C 29.734375 190.644531 29.710938 190.644531 29.699219 190.644531 L 29.296875 190.644531 C 28.617188 190.644531 27.839844 190.671875 27.027344 190.441406 C 26.492188 190.28125 25.960938 190.257812 25.292969 190.257812 L 23.910156 190.21875 C 22.511719 190.207031 21.117188 190.183594 19.722656 190.183594 C 18.859375 195.464844 19.261719 200.925781 19.648438 206.242188 L 19.78125 208.066406 C 20.011719 211.191406 20.148438 213.84375 20.109375 216.519531 C 20.109375 216.933594 20.085938 217.347656 20.0625 217.773438 C 19.929688 219.9375 19.953125 221.324219 21.152344 222.164062 C 21.941406 222.699219 23.097656 222.882812 24.101562 223.015625 Z M 32.332031 228.039062 C 32.234375 227.550781 32.125 227.078125 32.027344 226.589844 C 31.992188 226.589844 31.96875 226.589844 31.929688 226.589844 L 23.761719 225.484375 C 22.539062 225.3125 21.007812 225.09375 19.734375 224.195312 C 18.4375 223.296875 17.890625 222.113281 17.671875 220.863281 C 17.136719 221.128906 16.566406 221.167969 16.261719 221.191406 C 15.171875 221.238281 14.078125 221.261719 12.960938 221.289062 C 12.925781 221.289062 12.890625 221.289062 12.828125 221.289062 C 12.367188 221.289062 11.589844 221.226562 10.996094 220.632812 C 10.476562 220.121094 10.378906 219.4375 10.328125 219.074219 C 9.976562 216.640625 9.636719 214.125 9.40625 211.59375 C 9.285156 210.328125 9.199219 209.0625 9.152344 207.796875 C 9.152344 207.6875 9.152344 207.542969 9.140625 207.394531 C 9.042969 206.375 8.886719 204.84375 9.941406 204.074219 C 10.570312 203.613281 11.398438 203.578125 12.066406 203.515625 L 12.367188 203.503906 C 13.132812 203.417969 13.910156 203.40625 14.675781 203.441406 C 15.351562 203.480469 16.167969 203.578125 16.796875 204.148438 C 16.882812 204.246094 16.941406 204.332031 17.027344 204.417969 C 16.699219 199.757812 16.480469 194.988281 17.199219 190.257812 C 14.117188 190.441406 11.605469 190.851562 9.40625 191.621094 C 8.691406 192.640625 8.144531 193.75 7.78125 194.941406 C 6.480469 199.160156 7.050781 203.867188 7.648438 208.832031 C 7.976562 211.496094 8.300781 214.21875 8.339844 216.945312 C 8.375 219.839844 8.410156 222.820312 8.96875 225.558594 C 9.539062 225.8125 10.789062 225.972656 11.300781 226.019531 C 18.789062 226.921875 25.730469 227.589844 32.332031 228.039062 Z M 36.542969 144.238281 C 36.894531 143.839844 37.210938 143.4375 37.523438 143.046875 C 37.257812 143.011719 37.003906 142.914062 36.808594 142.71875 C 35.777344 141.683594 34.671875 140.710938 33.519531 139.777344 L 33.410156 139.859375 C 32.863281 140.273438 32.269531 140.675781 31.664062 141.089844 C 30.460938 141.941406 29.199219 142.804688 28.507812 143.667969 C 27.257812 145.273438 25.65625 146.464844 24.222656 147.5 C 23.800781 147.804688 23.398438 148.121094 23 148.425781 C 22.5 148.824219 22.015625 149.167969 21.554688 149.496094 C 21.46875 149.566406 21.386719 149.628906 21.277344 149.714844 C 21.652344 149.882812 22.015625 150.078125 22.402344 150.25 C 23.265625 148.886719 24.832031 147.925781 26.617188 147.71875 C 28.375 147.5 30.039062 148 31.128906 148.398438 C 31.507812 148.535156 32.429688 148.886719 33.179688 149.617188 C 33.191406 149.53125 33.21875 149.484375 33.230469 149.398438 C 33.8125 147.464844 35.269531 145.761719 36.542969 144.238281 Z M 55.714844 222.261719 C 55.714844 222.25 55.703125 222.25 55.703125 222.199219 C 55.375 220.996094 55.132812 219.804688 54.878906 218.660156 L 33.15625 218.476562 C 33.421875 220.4375 33.75 222.382812 34.113281 224.292969 C 38.980469 224.777344 44.164062 224.65625 49.210938 224.523438 C 51.394531 224.449219 53.542969 224.414062 55.644531 224.390625 C 55.644531 223.855469 55.644531 223.320312 55.679688 222.785156 C 55.679688 222.625 55.714844 222.429688 55.714844 222.261719 Z M 34.941406 228.210938 C 42.308594 228.671875 49.234375 228.84375 55.933594 228.746094 C 55.839844 228.136719 55.777344 227.503906 55.742188 226.882812 C 53.617188 226.882812 51.46875 226.945312 49.273438 227.015625 C 46.785156 227.078125 44.261719 227.152344 41.738281 227.152344 C 39.34375 227.152344 36.941406 227.078125 34.613281 226.882812 C 34.722656 227.332031 34.84375 227.773438 34.941406 228.210938 Z M 59.574219 138.742188 C 59.527344 138.292969 59.515625 137.867188 59.429688 137.453125 L 59.355469 137.0625 C 59.222656 136.199219 58.894531 134.398438 58.386719 133.898438 C 58.324219 133.886719 58.191406 133.863281 58.058594 133.863281 C 57.621094 133.863281 56.90625 133.972656 56.578125 134.035156 C 56.394531 134.058594 56.238281 134.09375 56.070312 134.105469 C 55.863281 134.203125 55.632812 134.242188 55.402344 134.203125 C 52.597656 134.628906 49.929688 135.46875 47.441406 136.796875 C 44.929688 138.15625 43.410156 139.714844 42.972656 141.417969 C 42.863281 141.808594 42.828125 142.21875 42.804688 142.644531 C 44.792969 141.175781 47.390625 140.214844 50.730469 139.738281 C 52.027344 139.542969 53.351562 139.445312 54.671875 139.324219 C 56.371094 139.191406 57.984375 139.023438 59.574219 138.742188 Z M 59.550781 142.511719 C 59.613281 142.097656 59.613281 141.671875 59.625 141.246094 C 58.035156 141.515625 56.433594 141.683594 54.867188 141.820312 C 53.59375 141.917969 52.332031 142.015625 51.09375 142.207031 C 47.414062 142.71875 44.820312 143.875 43.109375 145.699219 C 43.109375 145.699219 43.109375 145.699219 43.09375 145.710938 C 43.167969 145.992188 43.242188 146.269531 43.398438 146.492188 C 43.726562 146.988281 44.296875 147.390625 45.039062 147.597656 C 45.824219 147.828125 46.722656 147.863281 47.574219 147.863281 C 49.734375 147.863281 51.964844 147.695312 54.140625 147.292969 C 55.777344 146.988281 57.792969 146.464844 58.75 145.042969 C 59.152344 144.445312 59.394531 143.667969 59.550781 142.511719 Z M 106.273438 199.476562 C 106.578125 198.917969 106.878906 198.359375 107.207031 197.800781 C 106.855469 197.519531 106.515625 197.226562 106.140625 196.960938 C 102.195312 194.199219 97.257812 193.214844 92.511719 192.445312 C 88.300781 191.753906 83.835938 191.179688 79.707031 192.214844 C 76.128906 193.117188 72.621094 195.269531 69.261719 198.625 C 72.125 196.65625 75.242188 195.136719 78.59375 194.175781 C 80.523438 193.640625 82.511719 193.273438 84.527344 193.105469 C 84.902344 193.066406 85.292969 193.007812 85.679688 192.945312 C 86.09375 192.871094 86.515625 192.8125 86.941406 192.75 C 88.335938 192.605469 89.625 192.871094 90.667969 193.105469 C 90.996094 193.175781 91.324219 193.238281 91.625 193.296875 C 92.777344 193.492188 94.015625 193.699219 95.277344 194.039062 C 97.695312 194.671875 100.011719 195.597656 102.195312 196.765625 C 103.628906 197.554688 104.964844 198.46875 106.273438 199.476562 Z M 108.433594 195.597656 C 110.097656 192.679688 111.746094 189.78125 113.371094 186.851562 C 111.589844 185.125 109.671875 183.53125 107.546875 182.300781 C 103.226562 179.785156 97.863281 178.605469 91.589844 178.773438 C 90.628906 178.785156 89.671875 178.785156 88.703125 178.785156 C 83.90625 178.835938 78.980469 178.847656 75.046875 181.035156 C 70.132812 183.796875 64.585938 187.132812 61.042969 192.070312 C 58.265625 195.902344 56.625 200.816406 56.273438 206.265625 C 56.128906 208.796875 56.261719 211.460938 56.640625 214.28125 C 58.691406 208.453125 61.871094 203.015625 66.019531 198.429688 C 70.132812 193.84375 74.539062 190.949219 79.089844 189.808594 C 83.6875 188.652344 88.433594 189.257812 92.914062 189.976562 C 97.925781 190.804688 103.203125 191.839844 107.570312 194.929688 C 107.875 195.136719 108.140625 195.367188 108.433594 195.597656 Z M 112.523438 229.804688 C 112.851562 228.28125 113.25 226.410156 113.046875 225.121094 C 113.046875 225.121094 113.046875 225.121094 113.046875 225.09375 C 113.019531 224.984375 113.007812 224.875 112.972656 224.753906 L 112.789062 224.28125 C 112.488281 223.378906 112.148438 222.335938 112.148438 220.898438 L 112.160156 220 C 112.183594 218.941406 112.207031 218.027344 111.976562 217.273438 C 111.1875 214.574219 109.964844 212.03125 108.335938 209.730469 C 106.042969 206.460938 102.960938 203.734375 99.453125 201.835938 C 97.667969 200.875 95.777344 200.121094 93.824219 199.613281 C 92.789062 199.320312 91.722656 199.148438 90.726562 198.964844 C 90.304688 198.917969 89.890625 198.820312 89.464844 198.722656 C 88.835938 198.589844 88.238281 198.46875 87.777344 198.46875 C 87.707031 198.46875 87.621094 198.46875 87.574219 198.46875 C 87.246094 198.515625 86.917969 198.566406 86.589844 198.625 C 86.078125 198.710938 85.546875 198.785156 85 198.832031 C 83.363281 198.964844 81.734375 199.257812 80.15625 199.722656 C 77.125 200.585938 74.285156 201.984375 71.746094 203.90625 C 68.351562 206.433594 65.59375 209.855469 63.800781 213.746094 C 62.875 215.714844 62.210938 217.808594 61.808594 219.9375 C 61.601562 221.03125 61.46875 222.113281 61.410156 223.089844 C 60.972656 231.46875 64.539062 239.570312 70.957031 244.789062 C 73.445312 246.796875 76.394531 248.378906 79.476562 249.351562 C 81.773438 250.082031 84.5625 250.519531 87.972656 250.726562 C 88.738281 250.785156 89.804688 250.542969 90.835938 250.324219 C 91.226562 250.226562 91.613281 250.152344 91.976562 250.082031 C 93.617188 249.777344 95.242188 249.289062 96.820312 248.65625 C 100.984375 246.964844 104.648438 244.253906 107.414062 240.773438 C 109.441406 238.246094 110.933594 235.3125 111.890625 232.222656 C 111.855469 232.042969 111.832031 231.859375 111.855469 231.675781 C 111.878906 231.03125 112.125 230.460938 112.488281 229.996094 Z M 113.019531 206.410156 C 113.3125 206.835938 113.578125 207.273438 113.871094 207.699219 C 112.925781 205.207031 111.417969 202.152344 109.066406 199.5625 C 108.808594 199.988281 108.578125 200.425781 108.335938 200.875 L 108.238281 201.046875 C 110.023438 202.640625 111.648438 204.441406 113.019531 206.410156 Z M 122 199.78125 C 121.867188 199.585938 121.734375 199.355469 121.601562 199.125 C 121.066406 198.113281 120.605469 197.058594 120.167969 196.035156 C 119.816406 195.257812 119.488281 194.464844 119.113281 193.710938 C 118.578125 192.617188 117.863281 191.621094 116.832031 190.453125 C 116.296875 189.855469 115.738281 189.257812 115.179688 188.675781 C 113.605469 191.570312 111.976562 194.429688 110.339844 197.300781 C 112.65625 199.660156 114.574219 202.738281 115.996094 206.324219 C 116.054688 206.277344 116.105469 206.230469 116.175781 206.167969 C 116.457031 205.972656 116.757812 205.777344 117.0625 205.632812 C 117.402344 205.414062 117.71875 205.242188 117.925781 205.035156 C 118.09375 204.84375 119.027344 203.613281 119.78125 202.640625 C 120.8125 201.277344 121.503906 200.378906 122 199.78125 Z M 124.695312 116.042969 C 125.15625 114.925781 125.777344 113.390625 125.421875 112.601562 C 125.023438 111.699219 122.996094 111.785156 122.011719 111.824219 C 119.839844 111.917969 117.632812 112.015625 115.460938 112.125 L 114.9375 112.152344 C 110.824219 112.359375 106.539062 112.5625 102.328125 112.648438 C 96.867188 112.757812 91.226562 112.878906 85.886719 114.242188 C 75.339844 116.96875 66.652344 124.363281 58.957031 131.503906 C 59.382812 131.613281 59.757812 131.796875 60.085938 132.101562 C 61.117188 133.074219 61.503906 134.800781 61.808594 136.625 L 61.882812 136.988281 C 62.074219 138.121094 62.183594 139.253906 62.183594 140.382812 C 62.183594 141.210938 62.136719 142.039062 62.015625 142.867188 C 61.882812 143.8125 61.613281 145.261719 60.789062 146.441406 C 60.160156 147.390625 59.320312 148.035156 58.386719 148.535156 C 62.828125 148.351562 67.257812 148.097656 71.664062 147.765625 C 76.566406 147.402344 81.503906 146.953125 86.359375 146.40625 C 87.585938 146.269531 88.808594 146.125 90.035156 145.992188 C 90.339844 145.957031 90.667969 145.894531 90.996094 145.832031 C 91.746094 145.699219 92.511719 145.589844 93.289062 145.601562 C 95.738281 145.675781 98.035156 145.761719 100.414062 145.566406 C 105.847656 145.128906 111.226562 143.839844 116.429688 142.585938 C 117.402344 139.058594 118.496094 135.359375 119.757812 131.25 C 121.210938 126.578125 122.730469 121.90625 124.257812 117.246094 C 124.378906 116.882812 124.527344 116.480469 124.695312 116.042969 Z M 129.730469 115.726562 C 130.300781 112.894531 130.886719 109.960938 130.496094 107.175781 L 86.6875 108.429688 C 83.652344 108.515625 81.273438 109.902344 78.519531 111.519531 L 77.222656 112.261719 C 73.289062 114.484375 69.5625 117.175781 65.960938 119.765625 C 60.703125 123.523438 55.265625 127.429688 50.511719 131.964844 C 50.074219 132.390625 49.660156 132.84375 49.210938 133.292969 C 51.09375 132.5625 53.046875 132.039062 55.050781 131.746094 C 63.507812 123.828125 73.082031 114.960938 85.265625 111.824219 C 90.886719 110.386719 96.6875 110.265625 102.269531 110.15625 C 106.457031 110.070312 110.703125 109.863281 114.816406 109.667969 L 115.328125 109.632812 C 117.523438 109.535156 119.71875 109.425781 121.929688 109.328125 C 123.433594 109.269531 126.613281 109.132812 127.707031 111.589844 C 128.46875 113.332031 127.667969 115.351562 127.011719 116.980469 C 126.855469 117.34375 126.734375 117.710938 126.613281 118.015625 C 125.097656 122.660156 123.589844 127.320312 122.136719 132.003906 C 120.800781 136.332031 119.660156 140.25 118.652344 143.949219 C 118.519531 144.398438 118.179688 144.714844 117.730469 144.835938 C 112.207031 146.175781 106.480469 147.5625 100.605469 148.035156 C 98.09375 148.253906 95.628906 148.167969 93.238281 148.097656 C 92.65625 148.082031 92.0625 148.167969 91.417969 148.289062 C 91.054688 148.351562 90.691406 148.425781 90.328125 148.460938 C 89.101562 148.617188 87.875 148.753906 86.648438 148.886719 C 81.746094 149.445312 76.773438 149.894531 71.855469 150.261719 C 62.015625 150.992188 52.050781 151.378906 42.183594 151.378906 C 41.84375 151.378906 41.519531 151.246094 41.289062 150.992188 C 41.042969 150.746094 40.921875 150.417969 40.949219 150.078125 L 41.042969 147.960938 C 41.058594 147.804688 41.105469 147.671875 41.152344 147.5625 C 40.621094 146.601562 40.449219 145.53125 40.378906 144.496094 C 40.339844 144.179688 40.316406 143.863281 40.316406 143.535156 C 40.085938 143.8125 39.855469 144.128906 39.648438 144.375 C 39.285156 144.847656 38.859375 145.359375 38.433594 145.84375 C 37.269531 147.230469 36.042969 148.691406 35.632812 150.117188 C 34.820312 152.851562 34.25 155.078125 33.847656 157.132812 C 32.988281 161.511719 32.695312 166 32.597656 170.464844 C 32.597656 170.527344 32.632812 170.574219 32.632812 170.660156 C 32.632812 170.757812 32.597656 170.832031 32.585938 170.902344 C 32.550781 172.851562 32.550781 174.761719 32.523438 176.644531 C 32.523438 178.96875 32.5 181.269531 32.453125 183.566406 L 32.332031 187.679688 C 32.089844 196 31.820312 204.609375 32.550781 213.027344 C 32.621094 214.015625 32.730469 215.011719 32.851562 215.984375 L 54.417969 216.167969 C 53.824219 212.589844 53.59375 209.257812 53.785156 206.105469 C 54.175781 200.183594 55.972656 194.804688 59.015625 190.609375 C 62.863281 185.257812 68.703125 181.742188 73.847656 178.871094 C 78.324219 176.378906 83.59375 176.339844 88.675781 176.292969 C 89.636719 176.292969 90.59375 176.292969 91.515625 176.28125 C 98.265625 176.085938 104.066406 177.410156 108.796875 180.136719 C 110.921875 181.363281 112.828125 182.921875 114.597656 184.5625 C 116.527344 181.035156 118.445312 177.484375 120.300781 173.957031 L 122 170.722656 C 122.230469 170.296875 122.367188 169.90625 122.5 169.503906 C 78.945312 169.492188 46.214844 168.933594 46.214844 168.167969 C 46.214844 167.375 79.285156 166.609375 123.203125 166.316406 C 123.554688 164.652344 123.859375 162.960938 124.125 161.292969 C 124.730469 157.292969 125.15625 152.972656 125.546875 147.292969 C 126.210938 136.855469 127.609375 126.382812 129.660156 116.140625 Z M 135.761719 220.425781 C 135.835938 218.976562 135.871094 217.578125 135.910156 216.167969 C 130.789062 217.164062 125.519531 218.832031 119.9375 221.191406 C 120.300781 222.785156 120.484375 224.449219 120.617188 225.972656 L 120.65625 226.191406 C 120.75 227.152344 120.800781 228.113281 120.835938 229.074219 C 125.738281 229.230469 130.628906 229.378906 135.542969 229.511719 C 135.496094 226.457031 135.628906 223.417969 135.761719 220.425781 Z M 135.992188 213.589844 L 136.589844 169.492188 C 132.679688 169.492188 128.859375 169.503906 125.082031 169.503906 C 124.890625 170.296875 124.660156 171 124.199219 171.890625 L 122.5 175.125 C 120.53125 178.871094 118.496094 182.628906 116.457031 186.363281 C 117.21875 187.179688 117.960938 187.980469 118.6875 188.808594 C 119.878906 190.136719 120.703125 191.304688 121.335938 192.605469 C 121.734375 193.40625 122.097656 194.234375 122.4375 195.039062 C 122.898438 196.058594 123.300781 197.03125 123.796875 197.957031 C 124.027344 198.382812 124.257812 198.722656 124.5 198.992188 C 124.851562 199.355469 124.925781 199.890625 124.71875 200.351562 C 124.648438 200.523438 124.527344 200.683594 124.378906 200.792969 C 124.027344 201.191406 122.667969 202.96875 121.746094 204.148438 C 120.472656 205.839844 119.9375 206.53125 119.71875 206.738281 C 119.257812 207.238281 118.75 207.53125 118.289062 207.796875 C 118.058594 207.90625 117.851562 208.027344 117.632812 208.175781 C 117.390625 208.371094 117.136719 208.601562 116.890625 208.855469 C 117.367188 210.390625 117.765625 212.019531 118.128906 213.820312 C 118.359375 214.914062 118.554688 216.007812 118.726562 217.101562 C 118.820312 217.710938 118.992188 218.210938 119.210938 218.792969 C 125.058594 216.335938 130.59375 214.609375 135.992188 213.589844 Z M 136.429688 133.109375 C 136.589844 131.566406 136.757812 129.972656 136.722656 128.476562 C 136.6875 126.980469 136.601562 125.484375 136.527344 123.988281 C 136.46875 123 136.429688 122.003906 136.394531 121.03125 C 136.199219 116.371094 136.054688 111.6875 135.933594 107.03125 L 133.007812 107.101562 C 133.382812 110.203125 132.777344 113.257812 132.183594 116.238281 L 132.109375 116.640625 C 130.058594 126.761719 128.675781 137.136719 128.007812 147.4375 C 127.644531 153.203125 127.207031 157.597656 126.578125 161.683594 C 126.347656 163.214844 126.054688 164.773438 125.75 166.304688 C 129.308594 166.28125 132.949219 166.269531 136.625 166.269531 C 136.589844 166.148438 136.417969 165.917969 136.261719 165.746094 C 136.007812 165.417969 135.691406 165.039062 135.496094 164.519531 C 134.804688 162.753906 134.925781 160.820312 135.035156 159.105469 C 135.070312 158.65625 135.097656 158.191406 135.109375 157.742188 C 135.167969 155.25 135.265625 152.753906 135.375 150.261719 C 135.570312 145.394531 135.859375 140.410156 136.222656 135.46875 C 136.285156 134.691406 136.359375 133.898438 136.429688 133.109375 Z M 243.453125 221.152344 C 243.589844 219.121094 243.6875 217.140625 243.820312 215.121094 C 236.027344 215.046875 228.261719 214.988281 220.566406 214.949219 L 160.773438 214.609375 C 153.410156 214.574219 145.789062 214.523438 138.421875 215.703125 C 138.382812 217.296875 138.324219 218.902344 138.25 220.535156 C 138.179688 222.261719 138.09375 224.050781 138.058594 225.8125 L 238.878906 226.542969 C 239.230469 226.542969 239.632812 226.578125 240.070312 226.617188 C 240.96875 226.6875 242.652344 226.847656 242.980469 226.371094 C 243.441406 225.691406 243.441406 223.878906 243.417969 222.6875 C 243.417969 222.113281 243.417969 221.566406 243.453125 221.152344 Z M 244.9375 151.160156 L 244.800781 141.246094 C 244.742188 137.683594 244.679688 134.09375 244.621094 130.507812 C 244.511719 124.351562 243.78125 118.222656 242.859375 112.359375 C 215.53125 112.089844 188.03125 112.199219 161.261719 112.359375 C 154.960938 112.394531 148.664062 112.429688 142.363281 112.453125 C 144.015625 123.769531 148.007812 134.863281 153.941406 144.605469 C 154.863281 146.125 155.871094 147.65625 157.292969 148.558594 C 159.113281 149.714844 161.539062 149.785156 163.6875 149.847656 C 173.433594 150.128906 183.492188 150.417969 193.433594 150.164062 C 193.84375 150.152344 194.292969 150.152344 194.730469 150.152344 C 196.855469 150.152344 198.976562 150.261719 201.039062 150.382812 C 202.847656 150.492188 204.644531 150.589844 206.441406 150.613281 Z M 243.953125 212.628906 C 244.851562 197.226562 245.25 182.203125 245.117188 167.121094 C 244.984375 166.9375 244.910156 166.707031 244.886719 166.453125 C 244.886719 166.207031 244.984375 165.976562 245.117188 165.78125 C 245.105469 164.675781 245.117188 163.558594 245.105469 162.449219 L 244.972656 153.65625 L 206.40625 153.109375 C 204.574219 153.082031 202.753906 152.984375 200.90625 152.875 C 198.457031 152.742188 195.933594 152.609375 193.480469 152.65625 C 183.492188 152.914062 173.382812 152.621094 163.625 152.339844 C 161.273438 152.28125 158.359375 152.183594 155.96875 150.664062 C 154.101562 149.484375 152.839844 147.574219 151.820312 145.90625 C 145.449219 135.457031 141.273438 123.523438 139.707031 111.371094 C 139.671875 111.007812 139.769531 110.667969 140.011719 110.398438 C 140.242188 110.132812 140.582031 109.972656 140.933594 109.972656 C 147.703125 109.9375 154.464844 109.902344 161.234375 109.863281 C 187.875 109.707031 215.25 109.597656 242.449219 109.863281 C 242.3125 109.035156 242.167969 108.210938 242.046875 107.40625 C 237.15625 107.40625 232.253906 107.40625 227.398438 107.429688 C 215.882812 107.480469 203.976562 107.238281 192.449219 107.003906 C 176.417969 106.675781 159.816406 106.335938 143.820312 106.796875 L 138.421875 106.945312 C 138.542969 111.601562 138.6875 116.273438 138.882812 120.933594 C 138.917969 121.90625 138.953125 122.890625 139.015625 123.863281 C 139.089844 125.386719 139.171875 126.882812 139.210938 128.390625 C 139.246094 130.070312 139.078125 131.734375 138.894531 133.363281 C 138.820312 134.132812 138.75 134.898438 138.6875 135.652344 C 138.347656 140.554688 138.058594 145.503906 137.863281 150.359375 C 137.753906 152.851562 137.65625 155.332031 137.597656 157.804688 C 137.582031 158.277344 137.535156 158.789062 137.523438 159.261719 C 137.425781 160.796875 137.328125 162.363281 137.8125 163.617188 C 137.863281 163.75 138.019531 163.957031 138.191406 164.175781 C 138.480469 164.519531 138.847656 164.957031 139.015625 165.539062 C 139.089844 165.769531 139.125 166.015625 139.148438 166.246094 C 140.21875 166.246094 141.296875 166.246094 142.378906 166.21875 C 195.496094 166.074219 238.550781 166.644531 238.550781 167.546875 C 238.550781 168.433594 195.519531 169.296875 142.402344 169.46875 C 141.273438 169.46875 140.179688 169.492188 139.089844 169.492188 L 138.492188 213.175781 C 145.910156 212.03125 153.46875 212.078125 160.800781 212.117188 L 220.578125 212.457031 C 228.320312 212.492188 236.125 212.554688 243.953125 212.628906 Z M 247.421875 151.210938 L 251.113281 151.257812 C 250.214844 149.652344 249.949219 147.671875 249.789062 145.84375 L 248.589844 131.199219 C 248.089844 125.058594 247.59375 118.707031 248.429688 112.429688 C 247.421875 112.417969 246.402344 112.394531 245.382812 112.394531 C 246.28125 118.222656 247 124.304688 247.109375 130.46875 C 247.167969 134.058594 247.230469 137.648438 247.289062 141.210938 Z M 259.875 215.304688 C 255.359375 215.242188 250.820312 215.207031 246.308594 215.144531 C 246.171875 217.214844 246.078125 219.246094 245.941406 221.324219 C 245.90625 221.703125 245.90625 222.164062 245.90625 222.664062 C 245.929688 224.449219 245.929688 226.480469 245.03125 227.785156 C 244.21875 228.9375 242.859375 229.207031 241.539062 229.207031 C 240.953125 229.207031 240.371094 229.144531 239.863281 229.109375 C 239.5 229.074219 239.148438 229.035156 238.867188 229.035156 L 138.042969 228.308594 C 138.042969 228.734375 138.042969 229.144531 138.042969 229.570312 C 178.285156 230.59375 218.84375 230.824219 258.976562 230.242188 C 258.539062 227.808594 258.371094 225.3125 258.503906 222.785156 C 258.5625 221.554688 258.734375 220.230469 258.976562 218.867188 C 259.207031 217.664062 259.511719 216.472656 259.875 215.304688 Z M 315.347656 229.804688 C 315.660156 228.28125 316.074219 226.410156 315.855469 225.121094 C 315.84375 224.984375 315.796875 224.851562 315.757812 224.730469 L 315.613281 224.28125 C 315.308594 223.378906 314.957031 222.335938 314.957031 220.898438 L 314.984375 220 C 314.996094 218.941406 315.019531 218.027344 314.789062 217.273438 C 314 214.574219 312.773438 212.03125 311.148438 209.730469 C 308.855469 206.460938 305.773438 203.734375 302.277344 201.835938 C 300.492188 200.875 298.597656 200.121094 296.644531 199.613281 C 295.613281 199.320312 294.535156 199.148438 293.539062 198.964844 C 293.125 198.917969 292.703125 198.820312 292.277344 198.722656 C 291.644531 198.589844 291.050781 198.46875 290.601562 198.46875 C 290.515625 198.46875 290.445312 198.46875 290.382812 198.46875 C 290.054688 198.515625 289.726562 198.566406 289.414062 198.625 C 288.890625 198.710938 288.355469 198.785156 287.824219 198.832031 C 286.171875 198.964844 284.546875 199.257812 282.980469 199.722656 C 279.921875 200.585938 277.082031 201.984375 274.535156 203.90625 C 271.171875 206.433594 268.417969 209.855469 266.597656 213.746094 C 265.699219 215.714844 265.03125 217.808594 264.621094 219.9375 C 264.414062 221.03125 264.28125 222.113281 264.21875 223.089844 C 263.78125 231.46875 267.363281 239.570312 273.769531 244.789062 C 276.257812 246.796875 279.207031 248.378906 282.277344 249.351562 C 284.582031 250.082031 287.363281 250.519531 290.785156 250.726562 C 291.546875 250.785156 292.605469 250.542969 293.660156 250.324219 C 294.035156 250.226562 294.425781 250.152344 294.789062 250.082031 C 296.4375 249.777344 298.066406 249.289062 299.632812 248.65625 C 303.804688 246.964844 307.457031 244.253906 310.238281 240.773438 C 312.726562 237.648438 314.460938 233.949219 315.308594 230.046875 Z M 318.066406 210.132812 C 320.296875 210.058594 322.542969 209.988281 324.777344 209.902344 C 323.902344 206.265625 322.808594 202.617188 321.523438 199.113281 C 320.566406 196.472656 319.460938 193.710938 317.738281 191.316406 C 315.84375 188.652344 313.125 186.292969 309.617188 184.320312 C 304.582031 181.460938 299.304688 179.636719 293.953125 178.90625 C 286.792969 177.933594 280.105469 178.773438 274.632812 181.378906 C 270.054688 183.554688 265.882812 187.082031 262.253906 191.910156 C 258.574219 196.753906 255.929688 202.238281 254.039062 206.460938 C 253.128906 208.539062 252.300781 210.621094 252.132812 212.710938 C 254.996094 212.75 257.882812 212.773438 260.761719 212.808594 C 260.964844 212.3125 261.171875 211.8125 261.402344 211.324219 C 263.613281 206.546875 266.960938 202.410156 271.113281 199.296875 C 274.207031 196.960938 277.675781 195.230469 281.402344 194.175781 C 283.34375 193.640625 285.335938 193.273438 287.324219 193.105469 C 287.726562 193.066406 288.113281 193.007812 288.492188 192.945312 C 288.914062 192.871094 289.328125 192.8125 289.753906 192.75 C 291.148438 192.605469 292.433594 192.871094 293.492188 193.105469 C 293.804688 193.175781 294.132812 193.238281 294.4375 193.296875 C 295.589844 193.492188 296.839844 193.699219 298.101562 194.039062 C 300.492188 194.671875 302.824219 195.597656 305.007812 196.765625 C 309.277344 199.089844 313.027344 202.421875 315.84375 206.410156 C 316.679688 207.601562 317.410156 208.855469 318.066406 210.132812 Z M 340.734375 152.183594 C 342.371094 150.613281 343.136719 147.851562 342.808594 144.605469 C 342.519531 141.589844 341.984375 138.484375 341.460938 135.492188 C 341.195312 133.828125 340.917969 132.160156 340.660156 130.507812 C 339.957031 125.761719 339.207031 121.007812 338.441406 116.273438 C 338.234375 114.925781 337.480469 113.183594 336.148438 112.492188 C 335.671875 112.527344 335.1875 112.550781 334.777344 112.550781 C 330.152344 112.5625 325.539062 112.601562 320.917969 112.625 L 313.597656 112.6875 C 296.914062 112.820312 279.644531 112.929688 262.679688 112.625 C 258.769531 112.550781 254.851562 112.515625 250.941406 112.46875 C 250.058594 118.574219 250.578125 124.886719 251.078125 130.980469 L 252.277344 145.664062 C 252.449219 147.730469 252.761719 150.054688 254.207031 151.125 C 254.269531 151.160156 254.328125 151.246094 254.363281 151.296875 L 293.925781 151.855469 C 299.691406 151.953125 305.273438 152.023438 310.808594 152.085938 C 320.832031 152.21875 330.46875 152.339844 340.492188 152.523438 C 340.550781 152.390625 340.625 152.28125 340.734375 152.183594 Z M 348.015625 166.851562 L 348.015625 166.441406 C 340.964844 166.585938 334.058594 166.644531 326.863281 166.707031 C 322.578125 166.742188 318.269531 166.769531 313.867188 166.816406 L 247.605469 167.667969 C 247.628906 168.3125 247.628906 168.945312 247.628906 169.578125 C 247.738281 169.578125 247.859375 169.601562 247.96875 169.601562 C 248.453125 169.640625 248.917969 169.675781 249.253906 169.699219 C 278.695312 169.832031 310.105469 168.933594 348.015625 166.851562 Z M 348.125 162.632812 C 348.148438 162.390625 348.148438 161.867188 348.050781 161.71875 C 347.980469 161.621094 347.6875 161.511719 346.789062 161.488281 C 343.402344 161.488281 340.164062 161.429688 336.972656 161.367188 C 330.636719 161.257812 324.667969 161.160156 318.113281 161.390625 C 294.726562 162.21875 271.015625 162.765625 247.59375 163.058594 C 247.605469 163.761719 247.59375 164.480469 247.605469 165.175781 L 313.828125 164.324219 C 318.234375 164.273438 322.554688 164.25 326.851562 164.214844 C 334.058594 164.152344 341.027344 164.09375 348.089844 163.945312 Z M 348.453125 225.777344 C 348.988281 220.960938 349.375 216.105469 349.519531 211.289062 C 339.421875 211.824219 329.277344 212.261719 319.207031 212.589844 C 319.605469 213.589844 319.996094 214.609375 320.296875 215.667969 C 320.757812 217.25 320.746094 218.769531 320.699219 220.121094 L 320.699219 220.921875 C 320.699219 221.359375 320.796875 221.6875 321.050781 222.417969 L 321.230469 222.953125 C 321.355469 223.355469 321.449219 223.757812 321.523438 224.183594 C 321.644531 224.925781 321.65625 225.691406 321.621094 226.445312 C 330.539062 226.640625 339.519531 226.410156 348.453125 225.777344 Z M 349.351562 152.339844 C 349.789062 151.925781 349.738281 150.929688 349.617188 150.019531 C 348.488281 140.75 347.128906 131.347656 345.5625 122.101562 C 345.441406 121.433594 345.371094 120.628906 345.296875 119.765625 L 345.222656 119.097656 C 345.066406 117.601562 344.777344 114.816406 343.78125 113.5625 C 342.917969 112.492188 341.257812 112.285156 339.496094 112.296875 C 340.238281 113.414062 340.699219 114.691406 340.890625 115.871094 C 341.679688 120.628906 342.410156 125.386719 343.113281 130.140625 C 343.355469 131.773438 343.648438 133.425781 343.9375 135.066406 C 344.460938 138.097656 344.992188 141.246094 345.296875 144.347656 C 345.492188 146.367188 345.441406 149.824219 343.585938 152.585938 C 344.898438 152.609375 346.171875 152.621094 347.492188 152.644531 C 348.246094 152.65625 349.011719 152.65625 349.351562 152.339844 Z M 352.238281 105.546875 C 352.105469 105.242188 351.972656 104.949219 351.839844 104.644531 C 347.382812 104.355469 342.882812 104.121094 338.429688 103.941406 C 333.5 103.722656 328.527344 103.585938 323.609375 103.515625 C 321.851562 103.488281 320.105469 103.515625 318.34375 103.539062 C 315.226562 103.574219 311.996094 103.625 308.816406 103.378906 C 305.664062 103.148438 302.347656 103.1875 299.15625 103.222656 C 297.507812 103.246094 295.855469 103.257812 294.230469 103.246094 C 289.375 103.210938 284.484375 103.171875 279.632812 103.125 C 269.875 103.050781 260.105469 102.992188 250.347656 102.953125 C 243.578125 102.941406 236.816406 102.882812 230.058594 102.820312 C 219.742188 102.746094 209.097656 102.664062 198.578125 102.6875 C 192.703125 102.6875 186.84375 102.664062 180.980469 102.652344 C 168.359375 102.625 155.289062 102.589844 142.402344 102.785156 L 97.535156 103.515625 C 93.652344 103.574219 89.636719 103.625 85.863281 104.28125 C 84.648438 104.488281 83.472656 104.742188 82.378906 105.070312 C 80.277344 105.679688 78.484375 106.445312 77.003906 107.371094 C 76.867188 107.46875 76.699219 107.664062 76.46875 107.867188 C 76.203125 108.160156 75.933594 108.429688 75.632812 108.695312 C 74.84375 109.339844 74.003906 109.804688 73.253906 110.203125 C 72.960938 110.363281 72.683594 110.519531 72.390625 110.667969 C 68.507812 113.027344 64.792969 115.871094 61.214844 118.609375 L 35.546875 138.21875 C 36.601562 139.09375 37.621094 139.996094 38.570312 140.957031 C 38.691406 141.078125 38.789062 141.210938 38.835938 141.355469 C 41.519531 137.949219 44.890625 133.886719 48.8125 130.140625 C 53.679688 125.496094 59.1875 121.542969 64.503906 117.734375 C 68.167969 115.09375 71.953125 112.394531 75.996094 110.09375 L 77.269531 109.339844 C 80.183594 107.664062 82.9375 106.042969 86.625 105.933594 L 143.738281 104.304688 C 159.804688 103.84375 176.429688 104.183594 192.507812 104.511719 C 204.015625 104.742188 215.882812 104.984375 227.398438 104.9375 C 243.515625 104.875 259.875 104.972656 275.6875 105.070312 C 287.386719 105.144531 299.058594 105.21875 310.769531 105.21875 L 313.269531 105.21875 C 326.535156 105.242188 339.167969 105.253906 352.238281 105.546875 Z M 356.390625 183.042969 C 356.132812 177.789062 356.304688 172.21875 356.910156 166.183594 C 354.75 166.269531 352.628906 166.316406 350.503906 166.378906 L 350.46875 168.082031 C 350.441406 168.738281 349.921875 169.261719 349.277344 169.296875 C 313.367188 171.269531 283.285156 172.191406 255.203125 172.191406 C 253.210938 172.191406 251.234375 172.191406 249.230469 172.191406 C 248.832031 172.167969 248.296875 172.132812 247.789062 172.097656 C 247.726562 172.097656 247.691406 172.097656 247.628906 172.082031 C 247.640625 185.5 247.242188 198.929688 246.464844 212.652344 C 247.519531 212.664062 248.5625 212.664062 249.621094 212.6875 C 249.789062 210.121094 250.773438 207.699219 251.78125 205.4375 C 253.722656 201.082031 256.429688 195.4375 260.261719 190.390625 C 264.171875 185.257812 268.648438 181.460938 273.5625 179.113281 C 279.472656 176.316406 286.65625 175.390625 294.292969 176.425781 C 299.957031 177.191406 305.527344 179.113281 310.84375 182.144531 C 312.96875 183.359375 314.824219 184.699219 316.4375 186.183594 C 316.449219 186.183594 316.449219 186.15625 316.476562 186.15625 C 321.753906 186.5 327.09375 186.425781 332.359375 185.988281 C 336.183594 185.648438 340.066406 185.085938 343.816406 184.5625 C 347.941406 183.96875 352.167969 183.371094 356.390625 183.042969 Z M 358.960938 208.234375 C 359 203.648438 359.289062 199.027344 359.824219 194.464844 C 358.960938 193.929688 358.234375 193.214844 357.773438 192.398438 C 357.164062 191.304688 356.996094 190.136719 356.851562 188.917969 C 356.71875 187.8125 356.632812 186.679688 356.535156 185.539062 C 352.398438 185.867188 348.222656 186.449219 344.179688 187.019531 C 340.394531 187.558594 336.476562 188.117188 332.589844 188.457031 C 329.449219 188.722656 326.304688 188.859375 323.148438 188.859375 C 321.71875 188.859375 320.285156 188.785156 318.839844 188.722656 C 319.144531 189.113281 319.496094 189.480469 319.765625 189.855469 C 321.65625 192.53125 322.90625 195.597656 323.867188 198.25 C 325.199219 201.921875 326.355469 205.730469 327.25 209.539062 C 327.265625 209.632812 327.265625 209.730469 327.265625 209.816406 C 337.832031 209.429688 348.417969 208.894531 358.960938 208.234375 Z M 363.464844 152.449219 C 363.136719 150.347656 362.882812 148.191406 362.734375 146.066406 C 362.675781 145.335938 362.503906 144.570312 362.3125 143.765625 C 362.117188 142.914062 361.886719 141.953125 361.789062 140.90625 C 361.558594 138.546875 361.253906 136.1875 360.890625 133.886719 C 360.164062 129.21875 359.167969 124.582031 357.929688 120.046875 C 356.8125 116.054688 355.128906 112.027344 353.367188 108.0625 C 339.898438 107.746094 326.9375 107.734375 313.269531 107.710938 L 310.769531 107.710938 C 299.058594 107.710938 287.363281 107.636719 275.664062 107.566406 C 265.46875 107.503906 255.019531 107.441406 244.570312 107.429688 C 244.703125 108.234375 244.839844 109.0625 244.972656 109.902344 C 250.90625 109.960938 256.816406 110.011719 262.714844 110.132812 C 279.667969 110.4375 296.886719 110.324219 313.585938 110.191406 L 320.917969 110.132812 C 325.527344 110.105469 330.152344 110.070312 334.777344 110.058594 C 335.382812 110.058594 336.074219 109.996094 336.816406 109.9375 C 339.835938 109.707031 343.632812 109.402344 345.722656 111.992188 C 347.058594 113.683594 347.445312 116.410156 347.6875 118.816406 L 347.761719 119.511719 C 347.847656 120.324219 347.917969 121.066406 348.015625 121.699219 C 349.582031 130.96875 350.964844 140.410156 352.09375 149.714844 C 352.226562 150.722656 352.46875 152.851562 351.039062 154.179688 C 350.078125 155.042969 348.792969 155.164062 347.882812 155.164062 C 347.722656 155.164062 347.578125 155.164062 347.445312 155.140625 C 334.789062 154.882812 323.136719 154.738281 310.769531 154.578125 C 305.238281 154.507812 299.65625 154.445312 293.890625 154.347656 L 247.460938 153.703125 L 247.570312 160.5625 C 270.980469 160.273438 294.679688 159.726562 318.027344 158.898438 C 324.640625 158.667969 330.648438 158.765625 337.007812 158.875 C 340.199219 158.933594 343.441406 158.996094 346.8125 158.996094 C 347.554688 159.019531 349.144531 159.019531 350.042969 160.222656 C 350.671875 161.0625 350.636719 162.097656 350.613281 162.71875 L 350.578125 163.886719 C 352.761719 163.824219 354.957031 163.75 357.203125 163.679688 C 357.433594 161.71875 357.675781 159.738281 358.003906 157.695312 C 358.136719 156.769531 358.332031 155.503906 359.09375 154.46875 C 359.835938 153.472656 361.023438 152.804688 362.46875 152.546875 C 362.785156 152.488281 363.136719 152.476562 363.464844 152.449219 Z M 366.292969 173.847656 C 366.132812 168.703125 365.953125 163.789062 364.738281 158.875 C 364.410156 157.570312 364.144531 156.269531 363.902344 154.96875 C 363.550781 154.96875 363.210938 154.96875 362.882812 155.015625 C 362.09375 155.164062 361.449219 155.480469 361.097656 155.964844 C 360.722656 156.464844 360.589844 157.171875 360.453125 158.070312 C 359.59375 163.59375 359.070312 168.761719 358.863281 173.617188 C 361.328125 173.59375 363.816406 173.664062 366.292969 173.847656 Z M 365.234375 195.621094 C 364.894531 195.632812 364.570312 195.65625 364.230469 195.65625 C 363.839844 195.65625 363.464844 195.632812 363.074219 195.597656 C 362.785156 195.5625 362.503906 195.464844 362.238281 195.402344 C 361.753906 199.613281 361.484375 203.867188 361.449219 208.089844 C 362.191406 208.027344 362.96875 207.992188 363.707031 207.933594 C 363.730469 207.859375 363.707031 207.773438 363.730469 207.699219 L 363.78125 207.261719 C 364.082031 204.878906 364.363281 202.421875 364.542969 200.011719 C 364.679688 198.429688 364.835938 197.058594 365.234375 195.621094 Z M 366.449219 189.625 L 366.460938 189.039062 L 359.386719 189.039062 C 359.496094 189.820312 359.617188 190.574219 359.933594 191.167969 C 360.625 192.398438 362.152344 192.980469 363.367188 193.117188 C 364.242188 193.214844 365.164062 193.140625 366.085938 193.007812 C 366.292969 191.984375 366.363281 190.804688 366.449219 189.625 Z M 366.582031 186.546875 C 366.65625 184.832031 366.667969 183.203125 366.582031 181.707031 C 366.460938 179.90625 366.402344 178.117188 366.363281 176.351562 C 363.839844 176.160156 361.316406 176.0625 358.792969 176.109375 C 358.707031 179.746094 358.828125 183.226562 359.132812 186.546875 Z M 368.320312 211.714844 C 368.246094 211.714844 368.171875 211.691406 368.113281 211.691406 C 367.214844 211.542969 365.929688 211.265625 364.859375 210.363281 C 360.589844 210.632812 356.304688 210.898438 352.007812 211.15625 C 351.863281 215.949219 351.5 220.789062 350.976562 225.582031 C 355.648438 225.21875 360.320312 224.730469 364.96875 224.148438 C 364.992188 224.023438 365.003906 223.914062 365.03125 223.792969 L 367.882812 213.78125 C 368.074219 213.089844 368.28125 212.324219 368.320312 211.714844 Z M 373.960938 210.363281 C 374.265625 212.285156 373.753906 214.050781 373.390625 215.351562 L 370.5625 225.375 C 370.429688 225.8125 370.199219 226.214844 369.882812 226.519531 C 370.019531 228.050781 368.949219 229.4375 367.421875 229.632812 C 354.21875 231.394531 340.820312 232.273438 327.480469 232.273438 C 325.199219 232.273438 322.917969 232.234375 320.648438 232.199219 C 319.570312 236.613281 317.566406 240.800781 314.714844 244.363281 C 311.34375 248.621094 306.863281 251.941406 301.765625 253.996094 C 299.863281 254.777344 297.871094 255.359375 295.855469 255.738281 C 295.527344 255.796875 295.214844 255.871094 294.863281 255.957031 C 293.671875 256.199219 292.335938 256.492188 291.003906 256.492188 C 290.808594 256.492188 290.613281 256.492188 290.445312 256.492188 C 286.5625 256.234375 283.320312 255.699219 280.566406 254.835938 C 276.742188 253.632812 273.261719 251.746094 270.152344 249.253906 C 265.808594 245.726562 262.554688 241.117188 260.589844 235.980469 C 245.675781 236.214844 230.6875 236.3125 215.699219 236.3125 C 182.824219 236.3125 149.828125 235.761719 117.136719 234.71875 C 115.96875 238.207031 114.1875 241.480469 111.917969 244.363281 C 108.53125 248.621094 104.054688 251.941406 98.957031 253.996094 C 97.039062 254.777344 95.046875 255.359375 93.046875 255.738281 C 92.71875 255.796875 92.390625 255.871094 92.050781 255.957031 C 90.863281 256.199219 89.527344 256.492188 88.179688 256.492188 C 87.984375 256.492188 87.804688 256.492188 87.621094 256.492188 C 83.738281 256.234375 80.507812 255.699219 77.753906 254.835938 C 73.921875 253.632812 70.4375 251.746094 67.34375 249.253906 C 62.597656 245.398438 59.113281 240.214844 57.234375 234.484375 C 55.644531 234.523438 54.054688 234.546875 52.429688 234.546875 C 39.820312 234.546875 26.347656 233.632812 10.609375 231.738281 C 8.570312 231.492188 4.273438 230.96875 3.449219 227.210938 C 2.683594 223.78125 2.636719 220.339844 2.585938 217.03125 C 2.550781 214.609375 2.269531 212.152344 1.945312 209.523438 C 1.289062 204.171875 0.644531 198.652344 2.308594 193.261719 C 2.78125 191.679688 3.449219 190.21875 4.335938 188.847656 C 4.40625 184.46875 4.890625 179.175781 5.292969 174.855469 L 5.449219 173.167969 C 5.695312 170.539062 5.984375 167.765625 6.882812 164.992188 C 7.378906 163.410156 8.070312 161.925781 8.714844 160.492188 L 13.386719 150.226562 C 13.386719 150.1875 13.410156 150.164062 13.425781 150.128906 C 12.066406 149.398438 10.765625 148.617188 9.769531 147.367188 C 8.8125 146.160156 8.15625 144.398438 8.4375 142.683594 C 7.113281 142.269531 6.191406 141.40625 5.851562 140.25 C 5.304688 138.523438 6.300781 137.027344 6.6875 136.453125 C 8.375 133.9375 10.632812 131.773438 13.21875 130.203125 C 16.398438 128.257812 18.859375 127.953125 20.546875 129.289062 C 21.140625 129.753906 21.554688 130.3125 21.917969 130.835938 C 22.050781 131.003906 22.171875 131.175781 22.308594 131.332031 C 22.949219 132.101562 24.066406 133.378906 24.03125 135.191406 C 23.96875 137.488281 22.039062 138.949219 21.386719 139.445312 C 18.59375 141.539062 15.4375 142.769531 12.332031 143 C 12.066406 143.496094 12.257812 144.3125 12.757812 144.945312 C 13.410156 145.761719 14.417969 146.332031 15.609375 146.953125 C 16.410156 146.125 17.296875 145.492188 18.191406 144.835938 C 18.59375 144.542969 19.019531 144.226562 19.46875 143.875 C 19.917969 143.535156 20.378906 143.207031 20.828125 142.867188 C 22.078125 141.953125 23.230469 141.113281 23.96875 140.152344 C 25.195312 138.558594 26.917969 137.390625 28.421875 136.359375 C 28.945312 135.992188 29.46875 135.628906 29.917969 135.285156 L 57.730469 114.046875 C 61.445312 111.203125 65.265625 108.269531 69.429688 105.753906 C 69.792969 105.535156 70.171875 105.316406 70.558594 105.121094 C 71.09375 104.839844 71.613281 104.574219 71.917969 104.304688 C 72.085938 104.171875 72.222656 104.011719 72.355469 103.855469 C 72.753906 103.453125 73.226562 102.953125 73.96875 102.492188 C 75.898438 101.265625 78.132812 100.304688 80.789062 99.535156 C 82.097656 99.160156 83.472656 98.855469 84.890625 98.601562 C 89.101562 97.894531 93.347656 97.808594 97.449219 97.761719 L 142.304688 97.03125 C 155.242188 96.835938 168.335938 96.871094 181.003906 96.898438 C 186.84375 96.910156 192.703125 96.933594 198.578125 96.933594 C 209.097656 96.910156 219.777344 96.996094 230.09375 97.066406 C 236.851562 97.128906 243.613281 97.175781 250.382812 97.199219 C 260.140625 97.238281 269.910156 97.296875 279.667969 97.371094 C 284.535156 97.40625 289.414062 97.445312 294.292969 97.492188 C 295.882812 97.503906 297.484375 97.492188 299.074219 97.46875 C 302.410156 97.433594 305.855469 97.394531 309.242188 97.640625 C 312.167969 97.859375 315.261719 97.808594 318.269531 97.773438 C 320.089844 97.761719 321.886719 97.734375 323.683594 97.761719 C 328.660156 97.832031 333.695312 97.992188 338.671875 98.175781 C 343.742188 98.394531 348.878906 98.683594 353.925781 99.027344 C 354.980469 99.097656 355.917969 99.730469 356.339844 100.714844 L 357.042969 102.25 C 359.433594 107.503906 361.910156 112.929688 363.464844 118.511719 C 364.761719 123.257812 365.820312 128.121094 366.582031 133 C 366.949219 135.398438 367.261719 137.867188 367.492188 140.347656 C 367.578125 141.015625 367.722656 141.710938 367.894531 142.453125 C 368.125 143.402344 368.378906 144.445312 368.453125 145.640625 C 368.742188 149.628906 369.375 153.617188 370.308594 157.5 C 371.742188 163.351562 371.898438 169.140625 372.054688 174.722656 C 372.105469 176.914062 372.164062 179.113281 372.300781 181.363281 C 372.457031 183.699219 372.421875 186.183594 372.226562 188.957031 L 372.164062 189.953125 C 372.054688 191.875 371.933594 194.066406 371.109375 196.109375 C 370.5625 197.46875 370.429688 198.722656 370.273438 200.488281 C 370.113281 202.371094 369.933594 204.269531 369.703125 206.132812 C 370.601562 206.300781 371.65625 206.628906 372.53125 207.46875 C 373.292969 208.199219 373.765625 209.171875 373.960938 210.363281 " fill-opacity="1" fill-rule="nonzero"/></g><path fill="#000000" d="M 283.722656 229.011719 C 283.746094 228.976562 283.757812 228.914062 283.78125 228.867188 C 281.402344 228.878906 279.011719 229.109375 276.65625 229.5 C 277.375 231.46875 278.503906 233.269531 279.996094 234.765625 L 282.847656 230.546875 C 283.1875 230.007812 283.515625 229.535156 283.722656 229.011719 Z M 285.335938 221.894531 C 285.3125 221.894531 285.296875 221.800781 285.238281 221.703125 C 285.117188 221.457031 284.875 221.167969 284.632812 220.886719 L 279.4375 215.085938 C 278.503906 216.140625 277.703125 217.308594 277.105469 218.601562 C 276.804688 219.269531 276.550781 219.960938 276.34375 220.667969 C 279 221.421875 281.730469 222.113281 284.4375 222.066406 C 285.082031 222.054688 285.296875 221.933594 285.335938 221.894531 Z M 293.574219 210.765625 C 293.066406 210.632812 292.53125 210.535156 291.996094 210.449219 C 291.765625 210.414062 291.535156 210.363281 291.304688 210.316406 C 290.964844 210.230469 290.613281 210.15625 290.347656 210.15625 C 290.285156 210.15625 290.25 210.183594 290.214844 210.183594 C 290.019531 210.195312 289.847656 210.21875 289.679688 210.253906 C 289.386719 210.292969 289.109375 210.351562 288.816406 210.363281 C 287.921875 210.449219 287.023438 210.59375 286.136719 210.851562 C 286.101562 210.863281 286.074219 210.886719 286.039062 210.886719 C 286.671875 212.808594 287.496094 214.671875 288.527344 216.398438 C 288.953125 217.078125 289.328125 217.601562 289.789062 217.941406 C 289.789062 217.929688 289.789062 217.929688 289.789062 217.929688 C 291.304688 215.679688 292.542969 213.257812 293.574219 210.765625 Z M 292.664062 238.683594 C 292.761719 238.660156 292.835938 238.644531 292.90625 238.621094 C 292.703125 237.246094 292.496094 235.945312 292.082031 234.691406 C 291.683594 233.464844 291.148438 232.441406 290.46875 231.699219 C 289.644531 232.820312 288.988281 234.097656 288.332031 235.351562 L 286.707031 238.523438 C 287.785156 238.78125 289.011719 238.949219 290.445312 239.046875 C 290.90625 239.070312 291.476562 238.9375 292.046875 238.816406 Z M 301.195312 233.539062 C 302.214844 232.273438 303.003906 230.824219 303.539062 229.28125 C 301.0625 228.402344 298.40625 228.039062 295.785156 228.234375 C 297.214844 230.363281 298.746094 232.46875 300.324219 234.5 C 300.625 234.195312 300.929688 233.890625 301.195312 233.539062 Z M 303.746094 220.691406 C 303.71875 220.65625 303.71875 220.59375 303.71875 220.558594 C 303.285156 219.0625 302.617188 217.664062 301.71875 216.398438 C 301.316406 215.8125 300.855469 215.304688 300.394531 214.804688 L 295.515625 220.632812 C 295.589844 220.65625 295.675781 220.65625 295.746094 220.667969 C 298.042969 220.898438 300.601562 220.898438 303.746094 220.691406 Z M 304.351562 225.289062 C 304.351562 225.144531 304.339844 224.984375 304.316406 224.851562 C 304.304688 224.753906 304.277344 224.683594 304.265625 224.609375 L 304.167969 224.351562 C 304.074219 224.0625 303.976562 223.734375 303.914062 223.378906 C 302.347656 223.476562 300.894531 223.527344 299.570312 223.527344 C 298.101562 223.527344 296.753906 223.476562 295.457031 223.332031 C 294.996094 223.28125 294.484375 223.222656 293.964844 222.953125 C 293.199219 222.566406 292.675781 221.882812 292.605469 221.070312 C 292.496094 220.070312 293.125 219.328125 293.429688 218.964844 L 298.367188 213.015625 C 297.871094 212.652344 297.347656 212.324219 296.816406 212.019531 C 296.585938 211.898438 296.355469 211.8125 296.125 211.714844 C 295.019531 214.390625 293.636719 216.980469 292.007812 219.425781 C 291.828125 219.730469 291.414062 220.300781 290.734375 220.570312 C 290.46875 220.691406 290.1875 220.726562 289.921875 220.726562 C 289.375 220.726562 288.792969 220.535156 288.246094 220.132812 C 287.363281 219.5 286.753906 218.613281 286.246094 217.773438 C 285.117188 215.9375 284.242188 213.941406 283.550781 211.886719 C 282.824219 212.25 282.132812 212.664062 281.488281 213.175781 C 281.453125 213.1875 281.425781 213.222656 281.390625 213.246094 L 286.609375 219.074219 C 286.960938 219.476562 287.398438 219.972656 287.6875 220.605469 C 288.089844 221.496094 288.066406 222.480469 287.652344 223.246094 C 287.117188 224.195312 286.039062 224.71875 284.484375 224.753906 C 284.375 224.753906 284.253906 224.753906 284.121094 224.753906 C 281.257812 224.753906 278.503906 224.0625 275.84375 223.320312 C 275.820312 223.476562 275.796875 223.625 275.785156 223.78125 C 275.722656 224.816406 275.796875 225.847656 275.980469 226.871094 C 279.035156 226.347656 282.15625 226.117188 285.25 226.191406 C 285.867188 226.214844 286.402344 226.652344 286.535156 227.273438 C 286.707031 228.136719 286.597656 229.097656 286.207031 230.046875 C 285.882812 230.800781 285.445312 231.46875 285.066406 232.042969 L 282.058594 236.492188 C 282.726562 236.941406 283.417969 237.320312 284.144531 237.648438 L 285.964844 234.121094 C 286.671875 232.734375 287.398438 231.3125 288.382812 230.007812 C 288.585938 229.707031 289.253906 228.707031 290.46875 228.78125 C 291.28125 228.804688 291.863281 229.28125 292.226562 229.667969 C 293.273438 230.726562 294.085938 232.136719 294.632812 233.867188 C 295.054688 235.191406 295.285156 236.515625 295.492188 237.820312 C 296.488281 237.417969 297.433594 236.882812 298.285156 236.261719 C 296.609375 234.097656 294.984375 231.859375 293.441406 229.546875 C 293.222656 229.183594 292.472656 228.101562 293.003906 226.90625 C 293.394531 226.117188 294.167969 225.65625 295.324219 225.558594 C 298.308594 225.289062 301.355469 225.691406 304.183594 226.675781 C 304.277344 226.191406 304.351562 225.714844 304.351562 225.289062 Z M 306.960938 224.414062 C 307.15625 225.65625 306.886719 226.980469 306.65625 228.039062 C 306.074219 230.726562 304.933594 233.160156 303.308594 235.214844 C 301.488281 237.492188 299.074219 239.277344 296.34375 240.398438 C 295.324219 240.800781 294.253906 241.117188 293.175781 241.335938 L 292.628906 241.433594 C 291.996094 241.578125 291.28125 241.734375 290.554688 241.734375 C 290.46875 241.734375 290.371094 241.734375 290.273438 241.710938 C 288.1875 241.601562 286.441406 241.308594 284.945312 240.835938 C 282.894531 240.203125 281.027344 239.179688 279.375 237.84375 C 275.164062 234.425781 272.8125 229.109375 273.101562 223.625 C 273.140625 222.953125 273.234375 222.25 273.371094 221.53125 C 273.636719 220.132812 274.0625 218.769531 274.667969 217.46875 C 275.855469 214.914062 277.652344 212.6875 279.875 211.019531 C 281.535156 209.757812 283.417969 208.832031 285.40625 208.273438 C 286.441406 207.96875 287.519531 207.773438 288.585938 207.6875 C 288.816406 207.664062 289.023438 207.640625 289.242188 207.601562 C 289.472656 207.566406 289.691406 207.53125 289.910156 207.507812 C 290.636719 207.433594 291.28125 207.566406 291.863281 207.6875 C 292.046875 207.726562 292.226562 207.761719 292.410156 207.796875 C 293.066406 207.894531 293.734375 208.027344 294.386719 208.199219 C 295.675781 208.527344 296.914062 209.027344 298.078125 209.660156 C 300.371094 210.898438 302.386719 212.6875 303.902344 214.839844 C 304.96875 216.347656 305.773438 218.027344 306.292969 219.804688 C 306.535156 220.632812 306.523438 221.433594 306.5 222.152344 L 306.5 222.589844 C 306.5 222.882812 306.558594 223.0625 306.707031 223.488281 L 306.804688 223.78125 C 306.863281 223.988281 306.925781 224.195312 306.960938 224.414062 " fill-opacity="1" fill-rule="nonzero"/><path fill="#000000" d="M 195.09375 142.511719 C 195.09375 141.613281 195.09375 140.738281 195.070312 139.824219 C 195.070312 138.925781 195.058594 138.023438 195.058594 137.125 L 195.058594 123.523438 C 195.058594 122.453125 195.035156 121.359375 195.058594 120.265625 C 195.058594 119.9375 194.960938 119.679688 194.730469 119.449219 C 194.039062 118.769531 192.582031 118.453125 191.488281 118.453125 L 178.3125 118.453125 C 177.679688 118.453125 177.023438 118.441406 176.371094 118.414062 C 174.828125 118.367188 173.214844 118.304688 171.78125 118.574219 C 169.753906 118.960938 168.832031 121.105469 168.832031 125.519531 L 168.832031 137.292969 C 168.796875 139.679688 168.773438 141.574219 170.214844 143.277344 C 171.441406 144.761719 174.039062 144.761719 176.101562 144.738281 L 176.453125 144.738281 L 192.375 144.761719 C 193.371094 144.773438 193.613281 144.761719 194.074219 144.3125 L 194.292969 144.105469 C 194.839844 143.535156 195.09375 143 195.09375 142.511719 Z M 197.558594 139.8125 C 197.582031 140.710938 197.582031 141.613281 197.582031 142.511719 C 197.582031 143.644531 197.085938 144.761719 196.101562 145.808594 C 196.015625 145.90625 195.894531 146.027344 195.796875 146.125 C 194.765625 147.121094 193.773438 147.257812 192.8125 147.257812 C 192.644531 147.257812 192.472656 147.257812 192.316406 147.230469 L 176.101562 147.230469 C 173.652344 147.230469 170.289062 147.257812 168.324219 144.898438 C 166.273438 142.453125 166.308594 139.8125 166.34375 137.257812 L 166.34375 125.519531 C 166.34375 123.425781 166.34375 117.078125 171.320312 116.140625 C 173.019531 115.8125 174.765625 115.871094 176.453125 115.921875 C 177.085938 115.945312 177.691406 115.96875 178.3125 115.96875 L 191.488281 115.96875 C 193.078125 115.96875 195.226562 116.421875 196.488281 117.710938 C 197.195312 118.414062 197.558594 119.304688 197.546875 120.300781 C 197.523438 121.371094 197.546875 122.453125 197.546875 123.523438 L 197.546875 137.125 C 197.546875 138.023438 197.558594 138.910156 197.558594 139.8125 " fill-opacity="1" fill-rule="nonzero"/><path fill="#000000" d="M 145.75 162.789062 C 145.96875 159.871094 146.042969 156.914062 145.96875 154.007812 C 145.328125 154.019531 144.730469 154.042969 144.199219 154.105469 L 143.953125 154.3125 C 143.96875 154.3125 144.015625 154.421875 144.027344 154.605469 C 144.28125 156.0625 144.378906 157.5 144.28125 158.957031 L 144.246094 159.398438 C 144.183594 160.417969 144.101562 161.355469 144.511719 161.988281 C 144.730469 162.351562 145.191406 162.632812 145.75 162.789062 Z M 149.355469 162.621094 C 149.523438 159.824219 149.574219 157 149.5 154.203125 C 149.160156 154.152344 148.796875 154.140625 148.457031 154.117188 C 148.503906 157 148.457031 159.917969 148.238281 162.789062 C 148.457031 162.753906 148.640625 162.730469 148.832031 162.691406 Z M 156.757812 162.253906 C 156.722656 162.230469 156.734375 162.144531 156.722656 161.890625 C 156.5625 160.199219 155.96875 158.496094 155.410156 156.84375 C 155.242188 156.34375 155.058594 155.773438 154.742188 155.480469 C 154.464844 155.199219 153.929688 155.042969 153.445312 154.90625 C 152.972656 154.773438 152.484375 154.714844 151.988281 154.617188 C 152.050781 157.195312 152.011719 159.796875 151.855469 162.363281 C 153.179688 162.265625 154.511719 162.230469 155.859375 162.292969 C 156.429688 162.328125 156.660156 162.292969 156.757812 162.253906 Z M 159.183594 161.683594 C 159.246094 162.265625 159.246094 162.984375 158.820312 163.628906 C 158.019531 164.90625 156.417969 164.820312 155.726562 164.785156 C 153.734375 164.6875 151.710938 164.785156 149.707031 165.089844 L 149.222656 165.175781 C 148.457031 165.285156 147.644531 165.417969 146.820312 165.417969 C 146.589844 165.417969 146.382812 165.40625 146.152344 165.382812 C 144.511719 165.246094 143.152344 164.480469 142.402344 163.3125 C 141.578125 162 141.671875 160.527344 141.769531 159.226562 L 141.792969 158.800781 C 141.867188 157.558594 141.808594 156.292969 141.578125 155.054688 C 141.46875 154.3125 141.332031 153.582031 142.097656 152.621094 C 142.570312 152.023438 143.191406 151.707031 143.953125 151.625 C 144.851562 151.527344 145.847656 151.488281 146.976562 151.515625 C 149.390625 151.527344 151.78125 151.878906 154.101562 152.511719 C 154.875 152.71875 155.761719 152.984375 156.464844 153.679688 C 157.21875 154.386719 157.546875 155.347656 157.777344 156.039062 C 158.382812 157.828125 159.015625 159.6875 159.183594 161.683594 " fill-opacity="1" fill-rule="nonzero"/><path fill="#000000" d="M 133.507812 187.3125 C 133.785156 187.058594 133.773438 186.132812 133.75 185.757812 L 133.519531 176.546875 C 133.507812 175.890625 133.46875 175.160156 133.179688 174.894531 C 132.9375 174.664062 132.292969 174.589844 131.976562 174.554688 C 130.859375 174.417969 129.757812 174.359375 128.566406 174.296875 L 127.109375 174.226562 C 126.917969 174.226562 126.710938 174.210938 126.515625 174.210938 C 126.25 174.210938 126.007812 174.226562 125.886719 174.320312 C 125.386719 174.746094 125.386719 175.925781 125.386719 176.792969 C 125.375 178.410156 125.375 180.113281 125.484375 181.863281 C 125.59375 183.796875 125.8125 185.5 126.152344 187.082031 C 126.175781 187.179688 126.226562 187.496094 126.285156 187.582031 C 126.320312 187.617188 126.457031 187.691406 127.011719 187.75 C 128.929688 187.957031 130.847656 187.886719 132.71875 187.558594 C 132.9375 187.519531 133.335938 187.445312 133.507812 187.3125 Z M 136.238281 185.683594 C 136.261719 186.5 136.320312 188.1875 135.097656 189.210938 C 134.441406 189.78125 133.601562 189.941406 133.152344 190.015625 C 131.832031 190.246094 130.519531 190.355469 129.199219 190.355469 C 128.371094 190.355469 127.570312 190.316406 126.746094 190.21875 C 126.226562 190.171875 125.144531 190.050781 124.417969 189.210938 C 123.96875 188.710938 123.820312 188.117188 123.699219 187.59375 C 123.359375 185.914062 123.105469 184.089844 122.996094 181.996094 C 122.886719 180.171875 122.886719 178.347656 122.898438 176.949219 C 122.898438 175.515625 122.898438 173.578125 124.296875 172.398438 C 125.277344 171.597656 126.441406 171.695312 127.28125 171.753906 L 128.675781 171.804688 C 129.851562 171.863281 131.066406 171.925781 132.28125 172.082031 C 132.886719 172.15625 134.039062 172.289062 134.867188 173.070312 C 135.957031 174.089844 135.992188 175.585938 136.007812 176.488281 L 136.238281 185.683594 " fill-opacity="1" fill-rule="nonzero"/><path fill="#000000" d="M 120.386719 159.324219 L 107.050781 159.871094 C 107.039062 159.871094 107.015625 159.871094 106.988281 159.871094 C 106.722656 159.871094 106.457031 159.761719 106.25 159.589844 C 106.117188 160.015625 106.019531 160.429688 106.007812 160.855469 C 109.890625 160.917969 113.882812 160.929688 117.789062 160.636719 C 118.589844 160.589844 119.355469 160.503906 119.816406 160.164062 C 120.109375 159.957031 120.253906 159.640625 120.386719 159.324219 Z M 120.714844 156.828125 C 120.75 156.402344 120.777344 155.808594 120.714844 155.480469 C 120.351562 155.417969 119.648438 155.515625 119.320312 155.539062 C 119.050781 155.578125 118.808594 155.601562 118.628906 155.613281 C 116.03125 155.710938 113.421875 155.964844 110.859375 156.367188 C 110.058594 156.5 109.296875 156.636719 108.605469 156.914062 C 108.375 157.035156 108.179688 157.195312 107.972656 157.339844 L 120.582031 156.804688 C 120.640625 156.804688 120.679688 156.828125 120.714844 156.828125 Z M 122.667969 153.8125 C 123.300781 154.617188 123.289062 155.867188 123.191406 157.292969 C 123.167969 157.5 123.167969 157.667969 123.167969 157.804688 C 123.128906 159.785156 122.5 161.269531 121.308594 162.15625 C 120.300781 162.910156 119.113281 163.058594 117.984375 163.144531 C 115.328125 163.324219 112.65625 163.386719 110.023438 163.386719 C 108.277344 163.386719 106.554688 163.363281 104.828125 163.351562 C 104.257812 163.324219 103.761719 162.925781 103.652344 162.351562 C 102.996094 159.273438 104.757812 155.882812 107.621094 154.640625 C 108.566406 154.238281 109.539062 154.054688 110.472656 153.910156 C 113.117188 153.484375 115.835938 153.21875 118.542969 153.121094 C 118.664062 153.109375 118.847656 153.082031 119.050781 153.058594 C 120.21875 152.949219 121.832031 152.753906 122.667969 153.8125 " fill-opacity="1" fill-rule="nonzero"/><path fill="#000000" d="M 80.910156 229.011719 C 80.945312 228.976562 80.972656 228.914062 80.984375 228.867188 C 78.59375 228.878906 76.203125 229.109375 73.847656 229.5 C 74.550781 231.46875 75.679688 233.269531 77.171875 234.765625 L 80.023438 230.546875 C 80.375 230.007812 80.703125 229.535156 80.910156 229.011719 Z M 82.511719 221.894531 C 82.476562 221.894531 82.476562 221.800781 82.425781 221.703125 C 82.304688 221.457031 82.0625 221.167969 81.808594 220.886719 L 76.625 215.085938 C 75.679688 216.140625 74.878906 217.308594 74.285156 218.601562 C 73.980469 219.269531 73.738281 219.960938 73.519531 220.667969 C 76.175781 221.421875 78.921875 222.113281 81.613281 222.066406 C 82.269531 222.054688 82.476562 221.933594 82.511719 221.894531 Z M 90.765625 210.765625 C 90.253906 210.632812 89.707031 210.535156 89.175781 210.449219 C 88.945312 210.414062 88.714844 210.363281 88.496094 210.316406 C 88.144531 210.230469 87.804688 210.15625 87.535156 210.15625 C 87.476562 210.15625 87.4375 210.183594 87.390625 210.183594 C 87.207031 210.195312 87.039062 210.21875 86.855469 210.253906 C 86.578125 210.292969 86.285156 210.351562 85.996094 210.363281 C 85.097656 210.449219 84.199219 210.59375 83.324219 210.851562 C 83.289062 210.863281 83.265625 210.886719 83.226562 210.886719 C 83.859375 212.808594 84.683594 214.671875 85.726562 216.398438 C 86.140625 217.078125 86.515625 217.601562 86.976562 217.941406 C 86.976562 217.929688 86.976562 217.929688 86.976562 217.929688 C 88.496094 215.679688 89.734375 213.257812 90.765625 210.765625 Z M 89.867188 238.683594 C 89.9375 238.660156 90.023438 238.644531 90.097656 238.621094 C 89.890625 237.246094 89.671875 235.945312 89.273438 234.691406 C 88.871094 233.464844 88.335938 232.441406 87.644531 231.699219 C 86.84375 232.796875 86.214844 234.035156 85.523438 235.351562 L 83.894531 238.523438 C 84.964844 238.78125 86.1875 238.949219 87.621094 239.046875 C 88.082031 239.070312 88.664062 238.9375 89.234375 238.816406 Z M 98.386719 233.539062 C 99.394531 232.273438 100.179688 230.824219 100.714844 229.28125 C 98.253906 228.402344 95.582031 228.039062 92.972656 228.234375 C 94.40625 230.363281 95.933594 232.46875 97.5 234.5 C 97.816406 234.195312 98.117188 233.890625 98.386719 233.539062 Z M 100.933594 220.691406 C 100.910156 220.65625 100.933594 220.59375 100.910156 220.558594 C 100.472656 219.0625 99.792969 217.664062 98.894531 216.398438 C 98.496094 215.8125 98.035156 215.304688 97.585938 214.804688 L 92.695312 220.632812 C 92.777344 220.65625 92.851562 220.65625 92.925781 220.667969 C 95.230469 220.898438 97.789062 220.898438 100.933594 220.691406 Z M 101.539062 225.289062 C 101.539062 225.144531 101.527344 224.984375 101.503906 224.851562 C 101.480469 224.753906 101.46875 224.683594 101.445312 224.609375 L 101.347656 224.351562 C 101.25 224.0625 101.152344 223.734375 101.105469 223.378906 C 99.527344 223.476562 98.082031 223.527344 96.757812 223.527344 C 95.277344 223.527344 93.945312 223.476562 92.644531 223.332031 C 92.183594 223.28125 91.664062 223.222656 91.152344 222.953125 C 90.386719 222.566406 89.867188 221.882812 89.792969 221.070312 C 89.695312 220.070312 90.304688 219.328125 90.617188 218.964844 L 95.546875 213.015625 C 95.046875 212.652344 94.539062 212.324219 94.003906 212.019531 C 93.773438 211.898438 93.542969 211.8125 93.3125 211.714844 C 92.195312 214.390625 90.824219 216.980469 89.199219 219.425781 C 89.003906 219.730469 88.605469 220.300781 87.914062 220.570312 C 87.644531 220.691406 87.378906 220.726562 87.113281 220.726562 C 86.554688 220.726562 85.984375 220.535156 85.425781 220.132812 C 84.550781 219.5 83.957031 218.613281 83.433594 217.773438 C 82.304688 215.9375 81.417969 213.941406 80.742188 211.886719 C 80.011719 212.25 79.320312 212.664062 78.664062 213.175781 C 78.628906 213.1875 78.617188 213.222656 78.582031 213.246094 L 83.796875 219.074219 C 84.136719 219.476562 84.585938 219.972656 84.867188 220.605469 C 85.265625 221.496094 85.253906 222.480469 84.828125 223.246094 C 84.296875 224.195312 83.226562 224.71875 81.675781 224.753906 C 81.554688 224.753906 81.445312 224.753906 81.3125 224.753906 C 78.433594 224.753906 75.679688 224.0625 73.023438 223.320312 C 73.023438 223.476562 72.984375 223.625 72.960938 223.78125 C 72.914062 224.816406 72.984375 225.847656 73.15625 226.871094 C 76.226562 226.347656 79.34375 226.117188 82.4375 226.191406 C 83.070312 226.214844 83.59375 226.652344 83.726562 227.273438 C 83.894531 228.136719 83.785156 229.097656 83.398438 230.046875 C 83.070312 230.800781 82.632812 231.46875 82.246094 232.042969 L 79.257812 236.492188 C 79.914062 236.941406 80.605469 237.320312 81.335938 237.648438 L 83.144531 234.121094 C 83.859375 232.734375 84.585938 231.3125 85.558594 230.007812 C 85.789062 229.707031 86.480469 228.707031 87.644531 228.78125 C 88.46875 228.804688 89.042969 229.28125 89.40625 229.667969 C 90.460938 230.726562 91.261719 232.136719 91.820312 233.867188 C 92.234375 235.191406 92.464844 236.515625 92.683594 237.820312 C 93.675781 237.417969 94.613281 236.882812 95.472656 236.261719 C 93.808594 234.097656 92.160156 231.859375 90.628906 229.546875 C 90.398438 229.183594 89.660156 228.074219 90.207031 226.90625 C 90.570312 226.117188 91.359375 225.65625 92.511719 225.558594 C 95.496094 225.289062 98.53125 225.691406 101.371094 226.675781 C 101.46875 226.191406 101.539062 225.714844 101.539062 225.289062 Z M 104.136719 224.414062 C 104.332031 225.65625 104.066406 226.980469 103.835938 228.039062 C 103.265625 230.726562 102.109375 233.160156 100.484375 235.214844 C 98.664062 237.492188 96.261719 239.277344 93.542969 240.398438 C 92.511719 240.800781 91.433594 241.117188 90.363281 241.335938 L 89.804688 241.433594 C 89.175781 241.578125 88.46875 241.734375 87.742188 241.734375 C 87.644531 241.734375 87.546875 241.734375 87.453125 241.710938 C 85.363281 241.601562 83.628906 241.308594 82.136719 240.835938 C 80.085938 240.203125 78.214844 239.179688 76.566406 237.84375 C 72.355469 234.425781 70 229.109375 70.292969 223.625 C 70.328125 222.964844 70.425781 222.261719 70.558594 221.53125 C 70.824219 220.132812 71.25 218.769531 71.855469 217.46875 C 73.046875 214.914062 74.84375 212.6875 77.0625 211.019531 C 78.726562 209.757812 80.605469 208.832031 82.597656 208.273438 C 83.628906 207.96875 84.695312 207.773438 85.777344 207.6875 C 85.996094 207.664062 86.214844 207.640625 86.417969 207.601562 C 86.648438 207.566406 86.882812 207.53125 87.085938 207.507812 C 87.816406 207.410156 88.46875 207.566406 89.066406 207.6875 C 89.234375 207.726562 89.40625 207.761719 89.597656 207.796875 C 90.253906 207.894531 90.921875 208.027344 91.566406 208.199219 C 92.851562 208.527344 94.101562 209.027344 95.265625 209.660156 C 97.558594 210.898438 99.574219 212.6875 101.078125 214.839844 C 102.148438 216.347656 102.960938 218.027344 103.46875 219.804688 C 103.726562 220.632812 103.699219 221.433594 103.6875 222.152344 L 103.6875 222.589844 C 103.6875 222.882812 103.738281 223.0625 103.894531 223.488281 L 103.992188 223.78125 C 104.054688 223.988281 104.101562 224.195312 104.136719 224.414062 " fill-opacity="1" fill-rule="nonzero"/></svg>